<svg width="1380" height="411" viewBox="0 0 1380 411" fill="none" xmlns="http://www.w3.org/2000/svg">
    <rect x="3.90283" y="4.26196" width="1372" height="403" rx="59.5" fill="#171717" stroke="url(#paint0_linear_4_39)"
          stroke-width="7"/>
    <path d="M268.418 182.297C269.258 184.582 268.549 187.129 266.737 188.758L255.366 199.105C255.655 201.284 255.812 203.517 255.812 205.775C255.812 208.034 255.655 210.266 255.366 212.446L266.737 222.793C268.549 224.421 269.258 226.968 268.418 229.253C267.262 232.378 265.871 235.372 264.269 238.261L263.034 240.388C261.301 243.277 259.358 246.008 257.23 248.582C255.681 250.473 253.107 251.103 250.796 250.367L236.169 245.719C232.649 248.424 228.763 250.683 224.613 252.39L221.331 267.385C220.805 269.775 218.967 271.666 216.551 272.06C212.927 272.664 209.198 272.979 205.39 272.979C201.582 272.979 197.853 272.664 194.229 272.06C191.812 271.666 189.974 269.775 189.449 267.385L186.166 252.39C182.017 250.683 178.13 248.424 174.611 245.719L160.01 250.394C157.699 251.129 155.125 250.473 153.575 248.608C151.448 246.034 149.505 243.303 147.772 240.414L146.537 238.287C144.935 235.398 143.543 232.404 142.388 229.279C141.548 226.995 142.257 224.447 144.069 222.819L155.44 212.472C155.151 210.266 154.994 208.034 154.994 205.775C154.994 203.517 155.151 201.284 155.44 199.105L144.069 188.758C142.257 187.129 141.548 184.582 142.388 182.297C143.543 179.172 144.935 176.178 146.537 173.289L147.772 171.162C149.505 168.273 151.448 165.542 153.575 162.968C155.125 161.078 157.699 160.447 160.01 161.183L174.637 165.831C178.156 163.126 182.043 160.868 186.192 159.161L189.475 144.165C190 141.775 191.839 139.884 194.255 139.491C197.879 138.86 201.608 138.545 205.416 138.545C209.224 138.545 212.953 138.86 216.577 139.464C218.993 139.858 220.832 141.749 221.357 144.139L224.64 159.134C228.789 160.841 232.676 163.1 236.195 165.805L250.823 161.156C253.134 160.421 255.707 161.078 257.257 162.942C259.384 165.516 261.327 168.247 263.061 171.136L264.295 173.263C265.897 176.152 267.289 179.146 268.444 182.271L268.418 182.297ZM205.416 226.784C210.988 226.784 216.332 224.571 220.272 220.631C224.212 216.691 226.425 211.347 226.425 205.775C226.425 200.203 224.212 194.859 220.272 190.919C216.332 186.979 210.988 184.766 205.416 184.766C199.844 184.766 194.5 186.979 190.56 190.919C186.62 194.859 184.407 200.203 184.407 205.775C184.407 211.347 186.62 216.691 190.56 220.631C194.5 224.571 199.844 226.784 205.416 226.784Z"
          fill="url(#paint1_linear_4_39)"/>
    <path d="M142.037 86.1309V124.021H104.998V287.503H142.037V325.393H60.7217V86.1309H142.037Z"
          fill="url(#paint2_linear_4_39)"/>
    <path d="M350.084 325.393H268.769V287.503H305.808V124.021H268.769V86.1309H350.084V325.393Z"
          fill="url(#paint3_linear_4_39)"/>
    <path d="M440.027 235.642V268.762H436.667V242.314L424.859 268.762H422.411L410.603 242.41V268.762H407.243V235.642H410.795L423.611 264.346L436.427 235.642H440.027ZM446.113 255.61C446.113 252.922 446.641 250.57 447.697 248.554C448.785 246.506 450.273 244.938 452.161 243.85C454.081 242.73 456.241 242.17 458.641 242.17C461.137 242.17 463.281 242.746 465.073 243.898C466.897 245.05 468.209 246.522 469.009 248.314V242.554H472.369V268.762H469.009V262.954C468.177 264.746 466.849 266.234 465.025 267.418C463.233 268.57 461.089 269.146 458.593 269.146C456.225 269.146 454.081 268.586 452.161 267.466C450.273 266.346 448.785 264.762 447.697 262.714C446.641 260.666 446.113 258.298 446.113 255.61ZM469.009 255.658C469.009 253.546 468.577 251.69 467.713 250.09C466.849 248.49 465.665 247.258 464.161 246.394C462.689 245.53 461.057 245.098 459.265 245.098C457.409 245.098 455.745 245.514 454.273 246.346C452.801 247.178 451.633 248.394 450.769 249.994C449.937 251.562 449.521 253.434 449.521 255.61C449.521 257.754 449.937 259.642 450.769 261.274C451.633 262.874 452.801 264.106 454.273 264.97C455.745 265.802 457.409 266.218 459.265 266.218C461.057 266.218 462.689 265.786 464.161 264.922C465.665 264.058 466.849 262.826 467.713 261.226C468.577 259.626 469.009 257.77 469.009 255.658ZM494.2 268.762L483.4 257.002V268.762H480.04V233.242H483.4V254.266L493.96 242.554H498.664L486.232 255.61L498.76 268.762H494.2ZM504.782 237.61C504.11 237.61 503.534 237.37 503.054 236.89C502.574 236.41 502.334 235.818 502.334 235.114C502.334 234.41 502.574 233.834 503.054 233.386C503.534 232.906 504.11 232.666 504.782 232.666C505.454 232.666 506.03 232.906 506.51 233.386C506.99 233.834 507.23 234.41 507.23 235.114C507.23 235.818 506.99 236.41 506.51 236.89C506.03 237.37 505.454 237.61 504.782 237.61ZM506.462 242.554V268.762H503.102V242.554H506.462ZM526.359 242.074C529.495 242.074 532.055 243.05 534.039 245.002C536.023 246.922 537.015 249.722 537.015 253.402V268.762H533.703V253.786C533.703 250.938 532.983 248.762 531.543 247.258C530.135 245.754 528.199 245.002 525.735 245.002C523.207 245.002 521.191 245.802 519.687 247.402C518.183 249.002 517.431 251.354 517.431 254.458V268.762H514.071V242.554H517.431V247.018C518.263 245.418 519.463 244.202 521.031 243.37C522.599 242.506 524.375 242.074 526.359 242.074ZM555.438 242.17C557.902 242.17 560.046 242.746 561.87 243.898C563.694 245.05 565.006 246.506 565.806 248.266V242.554H569.166V269.434C569.166 271.834 568.638 273.962 567.582 275.818C566.558 277.674 565.118 279.098 563.262 280.09C561.406 281.114 559.294 281.626 556.926 281.626C553.566 281.626 550.766 280.826 548.526 279.226C546.318 277.626 544.942 275.45 544.398 272.698H547.71C548.286 274.522 549.374 275.978 550.974 277.066C552.606 278.154 554.59 278.698 556.926 278.698C558.622 278.698 560.142 278.33 561.486 277.594C562.83 276.89 563.886 275.834 564.654 274.426C565.422 273.018 565.806 271.354 565.806 269.434V262.954C564.974 264.746 563.646 266.234 561.822 267.418C560.03 268.57 557.902 269.146 555.438 269.146C553.038 269.146 550.878 268.586 548.958 267.466C547.07 266.346 545.582 264.762 544.494 262.714C543.438 260.666 542.91 258.298 542.91 255.61C542.91 252.922 543.438 250.57 544.494 248.554C545.582 246.506 547.07 244.938 548.958 243.85C550.878 242.73 553.038 242.17 555.438 242.17ZM565.806 255.658C565.806 253.546 565.374 251.69 564.51 250.09C563.646 248.49 562.462 247.258 560.958 246.394C559.486 245.53 557.854 245.098 556.062 245.098C554.206 245.098 552.542 245.514 551.07 246.346C549.598 247.178 548.43 248.394 547.566 249.994C546.734 251.562 546.318 253.434 546.318 255.61C546.318 257.754 546.734 259.642 547.566 261.274C548.43 262.874 549.598 264.106 551.07 264.97C552.542 265.802 554.206 266.218 556.062 266.218C557.854 266.218 559.486 265.786 560.958 264.922C562.462 264.058 563.646 262.826 564.51 261.226C565.374 259.626 565.806 257.77 565.806 255.658ZM621.208 242.074C624.28 242.074 626.776 243.05 628.696 245.002C630.648 246.922 631.624 249.722 631.624 253.402V268.762H628.312V253.786C628.312 250.938 627.624 248.762 626.248 247.258C624.872 245.754 623 245.002 620.632 245.002C618.168 245.002 616.2 245.818 614.728 247.45C613.256 249.082 612.52 251.45 612.52 254.554V268.762H609.208V253.786C609.208 250.938 608.52 248.762 607.144 247.258C605.768 245.754 603.88 245.002 601.48 245.002C599.016 245.002 597.048 245.818 595.576 247.45C594.104 249.082 593.368 251.45 593.368 254.554V268.762H590.008V242.554H593.368V247.066C594.2 245.434 595.384 244.202 596.92 243.37C598.456 242.506 600.168 242.074 602.056 242.074C604.328 242.074 606.312 242.618 608.008 243.706C609.736 244.794 610.984 246.394 611.752 248.506C612.456 246.426 613.656 244.842 615.352 243.754C617.08 242.634 619.032 242.074 621.208 242.074ZM650.559 269.146C648.095 269.146 645.871 268.602 643.887 267.514C641.935 266.394 640.383 264.826 639.231 262.81C638.111 260.762 637.551 258.378 637.551 255.658C637.551 252.938 638.127 250.57 639.279 248.554C640.431 246.506 641.999 244.938 643.983 243.85C645.967 242.73 648.191 242.17 650.655 242.17C653.119 242.17 655.343 242.73 657.327 243.85C659.343 244.938 660.911 246.506 662.031 248.554C663.183 250.57 663.759 252.938 663.759 255.658C663.759 258.346 663.183 260.714 662.031 262.762C660.879 264.81 659.295 266.394 657.279 267.514C655.263 268.602 653.023 269.146 650.559 269.146ZM650.559 266.218C652.287 266.218 653.887 265.834 655.359 265.066C656.831 264.266 658.015 263.082 658.911 261.514C659.839 259.914 660.303 257.962 660.303 255.658C660.303 253.354 659.855 251.418 658.959 249.85C658.063 248.25 656.879 247.066 655.407 246.298C653.935 245.498 652.335 245.098 650.607 245.098C648.879 245.098 647.279 245.498 645.807 246.298C644.335 247.066 643.151 248.25 642.255 249.85C641.391 251.418 640.959 253.354 640.959 255.658C640.959 257.962 641.391 259.914 642.255 261.514C643.151 263.082 644.319 264.266 645.759 265.066C647.231 265.834 648.831 266.218 650.559 266.218ZM668.347 255.61C668.347 252.922 668.891 250.57 669.979 248.554C671.067 246.506 672.555 244.938 674.443 243.85C676.363 242.73 678.523 242.17 680.923 242.17C683.227 242.17 685.307 242.73 687.163 243.85C689.019 244.97 690.379 246.426 691.243 248.218V233.242H694.603V268.762H691.243V262.906C690.443 264.73 689.131 266.234 687.307 267.418C685.483 268.57 683.339 269.146 680.875 269.146C678.475 269.146 676.315 268.586 674.395 267.466C672.507 266.346 671.019 264.762 669.931 262.714C668.875 260.666 668.347 258.298 668.347 255.61ZM691.243 255.658C691.243 253.546 690.811 251.69 689.947 250.09C689.083 248.49 687.899 247.258 686.395 246.394C684.923 245.53 683.291 245.098 681.499 245.098C679.643 245.098 677.979 245.514 676.507 246.346C675.035 247.178 673.867 248.394 673.003 249.994C672.171 251.562 671.755 253.434 671.755 255.61C671.755 257.754 672.171 259.642 673.003 261.274C673.867 262.874 675.035 264.106 676.507 264.97C677.979 265.802 679.643 266.218 681.499 266.218C683.291 266.218 684.923 265.786 686.395 264.922C687.899 264.058 689.083 262.826 689.947 261.226C690.811 259.626 691.243 257.77 691.243 255.658ZM711.298 269.146C708.29 269.146 705.826 268.458 703.906 267.082C702.018 265.674 700.962 263.77 700.738 261.37H704.194C704.354 262.842 705.042 264.042 706.258 264.97C707.506 265.866 709.17 266.314 711.25 266.314C713.074 266.314 714.498 265.882 715.522 265.018C716.578 264.154 717.106 263.082 717.106 261.802C717.106 260.906 716.818 260.17 716.242 259.594C715.666 259.018 714.93 258.57 714.034 258.25C713.17 257.898 711.986 257.53 710.482 257.146C708.53 256.634 706.946 256.122 705.73 255.61C704.514 255.098 703.474 254.346 702.61 253.354C701.778 252.33 701.362 250.97 701.362 249.274C701.362 247.994 701.746 246.81 702.514 245.722C703.282 244.634 704.37 243.77 705.778 243.13C707.186 242.49 708.786 242.17 710.578 242.17C713.394 242.17 715.666 242.89 717.394 244.33C719.122 245.738 720.05 247.69 720.178 250.186H716.818C716.722 248.65 716.114 247.418 714.994 246.49C713.906 245.53 712.402 245.05 710.482 245.05C708.786 245.05 707.41 245.45 706.354 246.25C705.298 247.05 704.77 248.042 704.77 249.226C704.77 250.25 705.074 251.098 705.682 251.77C706.322 252.41 707.106 252.922 708.034 253.306C708.962 253.658 710.21 254.058 711.778 254.506C713.666 255.018 715.17 255.514 716.29 255.994C717.41 256.474 718.37 257.178 719.17 258.106C719.97 259.034 720.386 260.266 720.418 261.802C720.418 263.21 720.034 264.474 719.266 265.594C718.498 266.682 717.426 267.546 716.05 268.186C714.674 268.826 713.09 269.146 711.298 269.146ZM763.627 254.314C763.627 255.466 763.595 256.346 763.531 256.954H741.787C741.883 258.938 742.363 260.634 743.227 262.042C744.091 263.45 745.227 264.522 746.635 265.258C748.043 265.962 749.579 266.314 751.243 266.314C753.419 266.314 755.243 265.786 756.715 264.73C758.219 263.674 759.211 262.25 759.691 260.458H763.243C762.603 263.018 761.227 265.114 759.115 266.746C757.035 268.346 754.411 269.146 751.243 269.146C748.779 269.146 746.571 268.602 744.619 267.514C742.667 266.394 741.131 264.826 740.011 262.81C738.923 260.762 738.379 258.378 738.379 255.658C738.379 252.938 738.923 250.554 740.011 248.506C741.099 246.458 742.619 244.89 744.571 243.802C746.523 242.714 748.747 242.17 751.243 242.17C753.739 242.17 755.915 242.714 757.771 243.802C759.659 244.89 761.099 246.362 762.091 248.218C763.115 250.042 763.627 252.074 763.627 254.314ZM760.219 254.218C760.251 252.266 759.851 250.602 759.019 249.226C758.219 247.85 757.115 246.81 755.707 246.106C754.299 245.402 752.763 245.05 751.099 245.05C748.603 245.05 746.475 245.85 744.715 247.45C742.955 249.05 741.979 251.306 741.787 254.218H760.219ZM768.238 255.61C768.238 252.922 768.766 250.57 769.822 248.554C770.91 246.506 772.398 244.938 774.286 243.85C776.206 242.73 778.366 242.17 780.766 242.17C783.262 242.17 785.406 242.746 787.198 243.898C789.022 245.05 790.334 246.522 791.134 248.314V242.554H794.494V268.762H791.134V262.954C790.302 264.746 788.974 266.234 787.15 267.418C785.358 268.57 783.214 269.146 780.718 269.146C778.35 269.146 776.206 268.586 774.286 267.466C772.398 266.346 770.91 264.762 769.822 262.714C768.766 260.666 768.238 258.298 768.238 255.61ZM791.134 255.658C791.134 253.546 790.702 251.69 789.838 250.09C788.974 248.49 787.79 247.258 786.286 246.394C784.814 245.53 783.182 245.098 781.39 245.098C779.534 245.098 777.87 245.514 776.398 246.346C774.926 247.178 773.758 248.394 772.894 249.994C772.062 251.562 771.646 253.434 771.646 255.61C771.646 257.754 772.062 259.642 772.894 261.274C773.758 262.874 774.926 264.106 776.398 264.97C777.87 265.802 779.534 266.218 781.39 266.218C783.182 266.218 784.814 265.786 786.286 264.922C787.79 264.058 788.974 262.826 789.838 261.226C790.702 259.626 791.134 257.77 791.134 255.658ZM811.189 269.146C808.181 269.146 805.717 268.458 803.797 267.082C801.909 265.674 800.853 263.77 800.629 261.37H804.085C804.245 262.842 804.933 264.042 806.149 264.97C807.397 265.866 809.061 266.314 811.141 266.314C812.965 266.314 814.389 265.882 815.413 265.018C816.469 264.154 816.997 263.082 816.997 261.802C816.997 260.906 816.709 260.17 816.133 259.594C815.557 259.018 814.821 258.57 813.925 258.25C813.061 257.898 811.877 257.53 810.373 257.146C808.421 256.634 806.837 256.122 805.621 255.61C804.405 255.098 803.365 254.346 802.501 253.354C801.669 252.33 801.253 250.97 801.253 249.274C801.253 247.994 801.637 246.81 802.405 245.722C803.173 244.634 804.261 243.77 805.669 243.13C807.077 242.49 808.677 242.17 810.469 242.17C813.285 242.17 815.557 242.89 817.285 244.33C819.013 245.738 819.941 247.69 820.069 250.186H816.709C816.613 248.65 816.005 247.418 814.885 246.49C813.797 245.53 812.293 245.05 810.373 245.05C808.677 245.05 807.301 245.45 806.245 246.25C805.189 247.05 804.661 248.042 804.661 249.226C804.661 250.25 804.965 251.098 805.573 251.77C806.213 252.41 806.997 252.922 807.925 253.306C808.853 253.658 810.101 254.058 811.669 254.506C813.557 255.018 815.061 255.514 816.181 255.994C817.301 256.474 818.261 257.178 819.061 258.106C819.861 259.034 820.277 260.266 820.309 261.802C820.309 263.21 819.925 264.474 819.157 265.594C818.389 266.682 817.317 267.546 815.941 268.186C814.565 268.826 812.981 269.146 811.189 269.146ZM828.313 237.61C827.641 237.61 827.065 237.37 826.585 236.89C826.105 236.41 825.865 235.818 825.865 235.114C825.865 234.41 826.105 233.834 826.585 233.386C827.065 232.906 827.641 232.666 828.313 232.666C828.985 232.666 829.561 232.906 830.041 233.386C830.521 233.834 830.761 234.41 830.761 235.114C830.761 235.818 830.521 236.41 830.041 236.89C829.561 237.37 828.985 237.61 828.313 237.61ZM829.993 242.554V268.762H826.633V242.554H829.993ZM861.314 254.314C861.314 255.466 861.282 256.346 861.218 256.954H839.474C839.57 258.938 840.05 260.634 840.914 262.042C841.778 263.45 842.914 264.522 844.322 265.258C845.73 265.962 847.266 266.314 848.93 266.314C851.106 266.314 852.93 265.786 854.402 264.73C855.906 263.674 856.898 262.25 857.378 260.458H860.93C860.29 263.018 858.914 265.114 856.802 266.746C854.722 268.346 852.098 269.146 848.93 269.146C846.466 269.146 844.258 268.602 842.306 267.514C840.354 266.394 838.818 264.826 837.698 262.81C836.61 260.762 836.066 258.378 836.066 255.658C836.066 252.938 836.61 250.554 837.698 248.506C838.786 246.458 840.306 244.89 842.258 243.802C844.21 242.714 846.434 242.17 848.93 242.17C851.426 242.17 853.602 242.714 855.458 243.802C857.346 244.89 858.786 246.362 859.778 248.218C860.802 250.042 861.314 252.074 861.314 254.314ZM857.906 254.218C857.938 252.266 857.538 250.602 856.706 249.226C855.906 247.85 854.802 246.81 853.394 246.106C851.986 245.402 850.45 245.05 848.786 245.05C846.29 245.05 844.162 245.85 842.402 247.45C840.642 249.05 839.666 251.306 839.474 254.218H857.906ZM870.822 247.21C871.558 245.578 872.678 244.314 874.182 243.418C875.718 242.522 877.59 242.074 879.798 242.074V245.578H878.886C876.454 245.578 874.502 246.234 873.03 247.546C871.558 248.858 870.822 251.05 870.822 254.122V268.762H867.462V242.554H870.822V247.21ZM902.392 245.386V261.658C902.392 263.258 902.696 264.362 903.304 264.97C903.912 265.578 904.984 265.882 906.52 265.882H909.592V268.762H905.992C903.624 268.762 901.864 268.218 900.712 267.13C899.56 266.01 898.984 264.186 898.984 261.658V245.386H895.336V242.554H898.984V235.978H902.392V242.554H909.592V245.386H902.392ZM926.605 269.146C924.141 269.146 921.917 268.602 919.933 267.514C917.981 266.394 916.429 264.826 915.277 262.81C914.157 260.762 913.597 258.378 913.597 255.658C913.597 252.938 914.173 250.57 915.325 248.554C916.477 246.506 918.045 244.938 920.029 243.85C922.013 242.73 924.237 242.17 926.701 242.17C929.165 242.17 931.389 242.73 933.373 243.85C935.389 244.938 936.957 246.506 938.077 248.554C939.229 250.57 939.805 252.938 939.805 255.658C939.805 258.346 939.229 260.714 938.077 262.762C936.925 264.81 935.341 266.394 933.325 267.514C931.309 268.602 929.069 269.146 926.605 269.146ZM926.605 266.218C928.333 266.218 929.933 265.834 931.405 265.066C932.877 264.266 934.061 263.082 934.957 261.514C935.885 259.914 936.349 257.962 936.349 255.658C936.349 253.354 935.901 251.418 935.005 249.85C934.109 248.25 932.925 247.066 931.453 246.298C929.981 245.498 928.381 245.098 926.653 245.098C924.925 245.098 923.325 245.498 921.853 246.298C920.381 247.066 919.197 248.25 918.301 249.85C917.437 251.418 917.005 253.354 917.005 255.658C917.005 257.962 917.437 259.914 918.301 261.514C919.197 263.082 920.365 264.266 921.805 265.066C923.277 265.834 924.877 266.218 926.605 266.218ZM957.566 255.658C957.566 252.938 958.11 250.57 959.198 248.554C960.286 246.506 961.79 244.938 963.71 243.85C965.63 242.73 967.822 242.17 970.286 242.17C973.518 242.17 976.174 242.97 978.254 244.57C980.366 246.17 981.726 248.346 982.334 251.098H978.734C978.286 249.21 977.31 247.738 975.806 246.682C974.334 245.594 972.494 245.05 970.286 245.05C968.526 245.05 966.942 245.45 965.534 246.25C964.126 247.05 963.006 248.25 962.174 249.85C961.374 251.418 960.974 253.354 960.974 255.658C960.974 257.962 961.374 259.914 962.174 261.514C963.006 263.114 964.126 264.314 965.534 265.114C966.942 265.914 968.526 266.314 970.286 266.314C972.494 266.314 974.334 265.786 975.806 264.73C977.31 263.642 978.286 262.138 978.734 260.218H982.334C981.726 262.906 980.366 265.066 978.254 266.698C976.142 268.33 973.486 269.146 970.286 269.146C967.822 269.146 965.63 268.602 963.71 267.514C961.79 266.394 960.286 264.826 959.198 262.81C958.11 260.762 957.566 258.378 957.566 255.658ZM1000.01 269.146C997.548 269.146 995.324 268.602 993.34 267.514C991.388 266.394 989.836 264.826 988.684 262.81C987.564 260.762 987.004 258.378 987.004 255.658C987.004 252.938 987.58 250.57 988.732 248.554C989.884 246.506 991.452 244.938 993.436 243.85C995.42 242.73 997.644 242.17 1000.11 242.17C1002.57 242.17 1004.8 242.73 1006.78 243.85C1008.8 244.938 1010.36 246.506 1011.48 248.554C1012.64 250.57 1013.21 252.938 1013.21 255.658C1013.21 258.346 1012.64 260.714 1011.48 262.762C1010.33 264.81 1008.75 266.394 1006.73 267.514C1004.72 268.602 1002.48 269.146 1000.01 269.146ZM1000.01 266.218C1001.74 266.218 1003.34 265.834 1004.81 265.066C1006.28 264.266 1007.47 263.082 1008.36 261.514C1009.29 259.914 1009.76 257.962 1009.76 255.658C1009.76 253.354 1009.31 251.418 1008.41 249.85C1007.52 248.25 1006.33 247.066 1004.86 246.298C1003.39 245.498 1001.79 245.098 1000.06 245.098C998.332 245.098 996.732 245.498 995.26 246.298C993.788 247.066 992.604 248.25 991.708 249.85C990.844 251.418 990.412 253.354 990.412 255.658C990.412 257.962 990.844 259.914 991.708 261.514C992.604 263.082 993.772 264.266 995.212 265.066C996.684 265.834 998.284 266.218 1000.01 266.218ZM1031.62 242.074C1034.76 242.074 1037.32 243.05 1039.3 245.002C1041.29 246.922 1042.28 249.722 1042.28 253.402V268.762H1038.97V253.786C1038.97 250.938 1038.25 248.762 1036.81 247.258C1035.4 245.754 1033.46 245.002 1031 245.002C1028.47 245.002 1026.46 245.802 1024.95 247.402C1023.45 249.002 1022.7 251.354 1022.7 254.458V268.762H1019.34V242.554H1022.7V247.018C1023.53 245.418 1024.73 244.202 1026.3 243.37C1027.86 242.506 1029.64 242.074 1031.62 242.074ZM1060.03 245.386H1053.94V268.762H1050.58V245.386H1046.93V242.554H1050.58V240.73C1050.58 237.882 1051.3 235.786 1052.74 234.442C1054.21 233.098 1056.58 232.426 1059.84 232.426V235.306C1057.66 235.306 1056.13 235.722 1055.23 236.554C1054.37 237.386 1053.94 238.778 1053.94 240.73V242.554H1060.03V245.386ZM1067 237.61C1066.33 237.61 1065.75 237.37 1065.27 236.89C1064.79 236.41 1064.55 235.818 1064.55 235.114C1064.55 234.41 1064.79 233.834 1065.27 233.386C1065.75 232.906 1066.33 232.666 1067 232.666C1067.67 232.666 1068.25 232.906 1068.73 233.386C1069.21 233.834 1069.45 234.41 1069.45 235.114C1069.45 235.818 1069.21 236.41 1068.73 236.89C1068.25 237.37 1067.67 237.61 1067 237.61ZM1068.68 242.554V268.762H1065.32V242.554H1068.68ZM1087.28 242.17C1089.75 242.17 1091.89 242.746 1093.71 243.898C1095.54 245.05 1096.85 246.506 1097.65 248.266V242.554H1101.01V269.434C1101.01 271.834 1100.48 273.962 1099.43 275.818C1098.4 277.674 1096.96 279.098 1095.11 280.09C1093.25 281.114 1091.14 281.626 1088.77 281.626C1085.41 281.626 1082.61 280.826 1080.37 279.226C1078.16 277.626 1076.79 275.45 1076.24 272.698H1079.55C1080.13 274.522 1081.22 275.978 1082.82 277.066C1084.45 278.154 1086.43 278.698 1088.77 278.698C1090.47 278.698 1091.99 278.33 1093.33 277.594C1094.67 276.89 1095.73 275.834 1096.5 274.426C1097.27 273.018 1097.65 271.354 1097.65 269.434V262.954C1096.82 264.746 1095.49 266.234 1093.67 267.418C1091.87 268.57 1089.75 269.146 1087.28 269.146C1084.88 269.146 1082.72 268.586 1080.8 267.466C1078.91 266.346 1077.43 264.762 1076.34 262.714C1075.28 260.666 1074.75 258.298 1074.75 255.61C1074.75 252.922 1075.28 250.57 1076.34 248.554C1077.43 246.506 1078.91 244.938 1080.8 243.85C1082.72 242.73 1084.88 242.17 1087.28 242.17ZM1097.65 255.658C1097.65 253.546 1097.22 251.69 1096.35 250.09C1095.49 248.49 1094.31 247.258 1092.8 246.394C1091.33 245.53 1089.7 245.098 1087.91 245.098C1086.05 245.098 1084.39 245.514 1082.91 246.346C1081.44 247.178 1080.27 248.394 1079.41 249.994C1078.58 251.562 1078.16 253.434 1078.16 255.61C1078.16 257.754 1078.58 259.642 1079.41 261.274C1080.27 262.874 1081.44 264.106 1082.91 264.97C1084.39 265.802 1086.05 266.218 1087.91 266.218C1089.7 266.218 1091.33 265.786 1092.8 264.922C1094.31 264.058 1095.49 262.826 1096.35 261.226C1097.22 259.626 1097.65 257.77 1097.65 255.658ZM1133.32 269.146C1130.86 269.146 1128.64 268.602 1126.65 267.514C1124.7 266.394 1123.15 264.826 1122 262.81C1120.88 260.762 1120.32 258.378 1120.32 255.658C1120.32 252.938 1120.89 250.57 1122.04 248.554C1123.2 246.506 1124.76 244.938 1126.75 243.85C1128.73 242.73 1130.96 242.17 1133.42 242.17C1135.88 242.17 1138.11 242.73 1140.09 243.85C1142.11 244.938 1143.68 246.506 1144.8 248.554C1145.95 250.57 1146.52 252.938 1146.52 255.658C1146.52 258.346 1145.95 260.714 1144.8 262.762C1143.64 264.81 1142.06 266.394 1140.04 267.514C1138.03 268.602 1135.79 269.146 1133.32 269.146ZM1133.32 266.218C1135.05 266.218 1136.65 265.834 1138.12 265.066C1139.6 264.266 1140.78 263.082 1141.68 261.514C1142.6 259.914 1143.07 257.962 1143.07 255.658C1143.07 253.354 1142.62 251.418 1141.72 249.85C1140.83 248.25 1139.64 247.066 1138.17 246.298C1136.7 245.498 1135.1 245.098 1133.37 245.098C1131.64 245.098 1130.04 245.498 1128.57 246.298C1127.1 247.066 1125.92 248.25 1125.02 249.85C1124.16 251.418 1123.72 253.354 1123.72 255.658C1123.72 257.962 1124.16 259.914 1125.02 261.514C1125.92 263.082 1127.08 264.266 1128.52 265.066C1130 265.834 1131.6 266.218 1133.32 266.218ZM1164.94 242.074C1168.07 242.074 1170.63 243.05 1172.62 245.002C1174.6 246.922 1175.59 249.722 1175.59 253.402V268.762H1172.28V253.786C1172.28 250.938 1171.56 248.762 1170.12 247.258C1168.71 245.754 1166.78 245.002 1164.31 245.002C1161.79 245.002 1159.77 245.802 1158.27 247.402C1156.76 249.002 1156.01 251.354 1156.01 254.458V268.762H1152.65V242.554H1156.01V247.018C1156.84 245.418 1158.04 244.202 1159.61 243.37C1161.18 242.506 1162.95 242.074 1164.94 242.074ZM1206.74 254.314C1206.74 255.466 1206.7 256.346 1206.64 256.954H1184.9C1184.99 258.938 1185.47 260.634 1186.34 262.042C1187.2 263.45 1188.34 264.522 1189.74 265.258C1191.15 265.962 1192.69 266.314 1194.35 266.314C1196.53 266.314 1198.35 265.786 1199.82 264.73C1201.33 263.674 1202.32 262.25 1202.8 260.458H1206.35C1205.71 263.018 1204.34 265.114 1202.22 266.746C1200.14 268.346 1197.52 269.146 1194.35 269.146C1191.89 269.146 1189.68 268.602 1187.73 267.514C1185.78 266.394 1184.24 264.826 1183.12 262.81C1182.03 260.762 1181.49 258.378 1181.49 255.658C1181.49 252.938 1182.03 250.554 1183.12 248.506C1184.21 246.458 1185.73 244.89 1187.68 243.802C1189.63 242.714 1191.86 242.17 1194.35 242.17C1196.85 242.17 1199.02 242.714 1200.88 243.802C1202.77 244.89 1204.21 246.362 1205.2 248.218C1206.22 250.042 1206.74 252.074 1206.74 254.314ZM1203.33 254.218C1203.36 252.266 1202.96 250.602 1202.13 249.226C1201.33 247.85 1200.22 246.81 1198.82 246.106C1197.41 245.402 1195.87 245.05 1194.21 245.05C1191.71 245.05 1189.58 245.85 1187.82 247.45C1186.06 249.05 1185.09 251.306 1184.9 254.218H1203.33ZM1229.37 248.362C1230.23 246.538 1231.56 245.05 1233.35 243.898C1235.18 242.746 1237.32 242.17 1239.78 242.17C1242.18 242.17 1244.33 242.73 1246.22 243.85C1248.1 244.938 1249.58 246.506 1250.63 248.554C1251.72 250.57 1252.26 252.922 1252.26 255.61C1252.26 258.298 1251.72 260.666 1250.63 262.714C1249.58 264.762 1248.09 266.346 1246.17 267.466C1244.28 268.586 1242.15 269.146 1239.78 269.146C1237.29 269.146 1235.13 268.586 1233.3 267.466C1231.51 266.314 1230.2 264.826 1229.37 263.002V268.762H1226.06V233.242H1229.37V248.362ZM1248.86 255.61C1248.86 253.434 1248.42 251.562 1247.56 249.994C1246.73 248.394 1245.58 247.178 1244.1 246.346C1242.63 245.514 1240.97 245.098 1239.11 245.098C1237.32 245.098 1235.67 245.53 1234.17 246.394C1232.7 247.258 1231.53 248.49 1230.66 250.09C1229.8 251.69 1229.37 253.546 1229.37 255.658C1229.37 257.77 1229.8 259.626 1230.66 261.226C1231.53 262.826 1232.7 264.058 1234.17 264.922C1235.67 265.786 1237.32 266.218 1239.11 266.218C1240.97 266.218 1242.63 265.802 1244.1 264.97C1245.58 264.106 1246.73 262.874 1247.56 261.274C1248.42 259.642 1248.86 257.754 1248.86 255.61ZM1280.05 242.554L1264.49 281.098H1260.99L1266.08 268.618L1255.33 242.554H1259.02L1267.95 264.922L1276.59 242.554H1280.05ZM418.715 341.146C416.251 341.146 414.027 340.602 412.043 339.514C410.091 338.394 408.539 336.826 407.387 334.81C406.267 332.762 405.707 330.378 405.707 327.658C405.707 324.938 406.283 322.57 407.435 320.554C408.587 318.506 410.155 316.938 412.139 315.85C414.123 314.73 416.347 314.17 418.811 314.17C421.275 314.17 423.499 314.73 425.483 315.85C427.499 316.938 429.067 318.506 430.187 320.554C431.339 322.57 431.915 324.938 431.915 327.658C431.915 330.346 431.339 332.714 430.187 334.762C429.035 336.81 427.451 338.394 425.435 339.514C423.419 340.602 421.179 341.146 418.715 341.146ZM418.715 338.218C420.443 338.218 422.043 337.834 423.515 337.066C424.987 336.266 426.171 335.082 427.067 333.514C427.995 331.914 428.459 329.962 428.459 327.658C428.459 325.354 428.011 323.418 427.115 321.85C426.219 320.25 425.035 319.066 423.563 318.298C422.091 317.498 420.491 317.098 418.763 317.098C417.035 317.098 415.435 317.498 413.963 318.298C412.491 319.066 411.307 320.25 410.411 321.85C409.547 323.418 409.115 325.354 409.115 327.658C409.115 329.962 409.547 331.914 410.411 333.514C411.307 335.082 412.475 336.266 413.915 337.066C415.387 337.834 416.987 338.218 418.715 338.218ZM450.328 314.074C453.464 314.074 456.024 315.05 458.008 317.002C459.992 318.922 460.984 321.722 460.984 325.402V340.762H457.672V325.786C457.672 322.938 456.952 320.762 455.512 319.258C454.104 317.754 452.168 317.002 449.704 317.002C447.176 317.002 445.16 317.802 443.656 319.402C442.152 321.002 441.4 323.354 441.4 326.458V340.762H438.04V314.554H441.4V319.018C442.232 317.418 443.432 316.202 445 315.37C446.568 314.506 448.344 314.074 450.328 314.074ZM492.127 326.314C492.127 327.466 492.095 328.346 492.031 328.954H470.287C470.383 330.938 470.863 332.634 471.727 334.042C472.591 335.45 473.727 336.522 475.135 337.258C476.543 337.962 478.079 338.314 479.743 338.314C481.919 338.314 483.743 337.786 485.215 336.73C486.719 335.674 487.711 334.25 488.191 332.458H491.743C491.103 335.018 489.727 337.114 487.615 338.746C485.535 340.346 482.911 341.146 479.743 341.146C477.279 341.146 475.071 340.602 473.119 339.514C471.167 338.394 469.631 336.826 468.511 334.81C467.423 332.762 466.879 330.378 466.879 327.658C466.879 324.938 467.423 322.554 468.511 320.506C469.599 318.458 471.119 316.89 473.071 315.802C475.023 314.714 477.247 314.17 479.743 314.17C482.239 314.17 484.415 314.714 486.271 315.802C488.159 316.89 489.599 318.362 490.591 320.218C491.615 322.042 492.127 324.074 492.127 326.314ZM488.719 326.218C488.751 324.266 488.351 322.602 487.519 321.226C486.719 319.85 485.615 318.81 484.207 318.106C482.799 317.402 481.263 317.05 479.599 317.05C477.103 317.05 474.975 317.85 473.215 319.45C471.455 321.05 470.479 323.306 470.287 326.218H488.719Z"
          fill="white"/>
    <path d="M442.923 175.402H419.643L415.643 186.762H406.123L426.043 131.082H436.603L456.523 186.762H446.923L442.923 175.402ZM440.363 167.962L431.323 142.122L422.203 167.962H440.363ZM501.965 187.482C498.499 187.482 495.379 186.869 492.605 185.642C489.885 184.362 487.725 182.655 486.125 180.522C484.525 178.335 483.672 175.909 483.565 173.242H493.005C493.165 175.109 494.045 176.682 495.645 177.962C497.299 179.189 499.352 179.802 501.805 179.802C504.365 179.802 506.339 179.322 507.725 178.362C509.165 177.349 509.885 176.069 509.885 174.522C509.885 172.869 509.085 171.642 507.485 170.842C505.939 170.042 503.459 169.162 500.045 168.202C496.739 167.295 494.045 166.415 491.965 165.562C489.885 164.709 488.072 163.402 486.525 161.642C485.032 159.882 484.285 157.562 484.285 154.682C484.285 152.335 484.979 150.202 486.365 148.282C487.752 146.309 489.725 144.762 492.285 143.642C494.899 142.522 497.885 141.962 501.245 141.962C506.259 141.962 510.285 143.242 513.325 145.802C516.419 148.309 518.072 151.749 518.285 156.122H509.165C509.005 154.149 508.205 152.575 506.765 151.402C505.325 150.229 503.379 149.642 500.925 149.642C498.525 149.642 496.685 150.095 495.405 151.002C494.125 151.909 493.485 153.109 493.485 154.602C493.485 155.775 493.912 156.762 494.765 157.562C495.619 158.362 496.659 159.002 497.885 159.482C499.112 159.909 500.925 160.469 503.325 161.162C506.525 162.015 509.139 162.895 511.165 163.802C513.245 164.655 515.032 165.935 516.525 167.642C518.019 169.349 518.792 171.615 518.845 174.442C518.845 176.949 518.152 179.189 516.765 181.162C515.379 183.135 513.405 184.682 510.845 185.802C508.339 186.922 505.379 187.482 501.965 187.482ZM533.34 136.842C531.686 136.842 530.3 136.282 529.18 135.162C528.06 134.042 527.5 132.655 527.5 131.002C527.5 129.349 528.06 127.962 529.18 126.842C530.3 125.722 531.686 125.162 533.34 125.162C534.94 125.162 536.3 125.722 537.42 126.842C538.54 127.962 539.1 129.349 539.1 131.002C539.1 132.655 538.54 134.042 537.42 135.162C536.3 136.282 534.94 136.842 533.34 136.842ZM537.82 142.682V186.762H528.7V142.682H537.82ZM603.153 141.962C606.62 141.962 609.713 142.682 612.433 144.122C615.207 145.562 617.367 147.695 618.913 150.522C620.513 153.349 621.313 156.762 621.313 160.762V186.762H612.273V162.122C612.273 158.175 611.287 155.162 609.313 153.082C607.34 150.949 604.647 149.882 601.233 149.882C597.82 149.882 595.1 150.949 593.073 153.082C591.1 155.162 590.113 158.175 590.113 162.122V186.762H581.073V162.122C581.073 158.175 580.087 155.162 578.113 153.082C576.14 150.949 573.447 149.882 570.033 149.882C566.62 149.882 563.9 150.949 561.873 153.082C559.9 155.162 558.913 158.175 558.913 162.122V186.762H549.793V142.682H558.913V147.722C560.407 145.909 562.3 144.495 564.593 143.482C566.887 142.469 569.34 141.962 571.953 141.962C575.473 141.962 578.62 142.709 581.393 144.202C584.167 145.695 586.3 147.855 587.793 150.682C589.127 148.015 591.207 145.909 594.033 144.362C596.86 142.762 599.9 141.962 603.153 141.962ZM642.038 149.162C643.585 147.135 645.692 145.429 648.358 144.042C651.025 142.655 654.038 141.962 657.398 141.962C661.238 141.962 664.732 142.922 667.878 144.842C671.078 146.709 673.585 149.349 675.398 152.762C677.212 156.175 678.118 160.095 678.118 164.522C678.118 168.949 677.212 172.922 675.398 176.442C673.585 179.909 671.078 182.629 667.878 184.602C664.732 186.522 661.238 187.482 657.398 187.482C654.038 187.482 651.052 186.815 648.438 185.482C645.825 184.095 643.692 182.389 642.038 180.362V207.722H632.918V142.682H642.038V149.162ZM668.838 164.522C668.838 161.482 668.198 158.869 666.918 156.682C665.692 154.442 664.038 152.762 661.958 151.642C659.932 150.469 657.745 149.882 655.398 149.882C653.105 149.882 650.918 150.469 648.838 151.642C646.812 152.815 645.158 154.522 643.878 156.762C642.652 159.002 642.038 161.642 642.038 164.682C642.038 167.722 642.652 170.389 643.878 172.682C645.158 174.922 646.812 176.629 648.838 177.802C650.918 178.975 653.105 179.562 655.398 179.562C657.745 179.562 659.932 178.975 661.958 177.802C664.038 176.575 665.692 174.815 666.918 172.522C668.198 170.229 668.838 167.562 668.838 164.522ZM696.257 127.562V186.762H687.137V127.562H696.257ZM748.631 163.642C748.631 165.295 748.524 166.789 748.311 168.122H714.631C714.898 171.642 716.204 174.469 718.551 176.602C720.898 178.735 723.778 179.802 727.191 179.802C732.098 179.802 735.564 177.749 737.591 173.642H747.431C746.098 177.695 743.671 181.029 740.151 183.642C736.684 186.202 732.364 187.482 727.191 187.482C722.978 187.482 719.191 186.549 715.831 184.682C712.524 182.762 709.911 180.095 707.991 176.682C706.124 173.215 705.191 169.215 705.191 164.682C705.191 160.149 706.098 156.175 707.911 152.762C709.778 149.295 712.364 146.629 715.671 144.762C719.031 142.895 722.871 141.962 727.191 141.962C731.351 141.962 735.058 142.869 738.311 144.682C741.564 146.495 744.098 149.055 745.911 152.362C747.724 155.615 748.631 159.375 748.631 163.642ZM739.111 160.762C739.058 157.402 737.858 154.709 735.511 152.682C733.164 150.655 730.258 149.642 726.791 149.642C723.644 149.642 720.951 150.655 718.711 152.682C716.471 154.655 715.138 157.349 714.711 160.762H739.111ZM766.726 149.082C768.059 146.842 769.819 145.109 772.006 143.882C774.246 142.602 776.886 141.962 779.926 141.962V151.402H777.606C774.033 151.402 771.313 152.309 769.446 154.122C767.633 155.935 766.726 159.082 766.726 163.562V186.762H757.606V142.682H766.726V149.082ZM868.29 142.682L854.61 186.762H845.01L836.13 154.202L827.25 186.762H817.65L803.89 142.682H813.17L822.37 178.122L831.73 142.682H841.25L850.21 177.962L859.33 142.682H868.29ZM872.066 164.522C872.066 160.095 872.973 156.175 874.786 152.762C876.653 149.349 879.159 146.709 882.306 144.842C885.506 142.922 889.026 141.962 892.866 141.962C896.333 141.962 899.346 142.655 901.906 144.042C904.519 145.375 906.599 147.055 908.146 149.082V142.682H917.346V186.762H908.146V180.202C906.599 182.282 904.493 184.015 901.826 185.402C899.159 186.789 896.119 187.482 892.706 187.482C888.919 187.482 885.453 186.522 882.306 184.602C879.159 182.629 876.653 179.909 874.786 176.442C872.973 172.922 872.066 168.949 872.066 164.522ZM908.146 164.682C908.146 161.642 907.506 159.002 906.226 156.762C904.999 154.522 903.373 152.815 901.346 151.642C899.319 150.469 897.133 149.882 894.786 149.882C892.439 149.882 890.253 150.469 888.226 151.642C886.199 152.762 884.546 154.442 883.266 156.682C882.039 158.869 881.426 161.482 881.426 164.522C881.426 167.562 882.039 170.229 883.266 172.522C884.546 174.815 886.199 176.575 888.226 177.802C890.306 178.975 892.493 179.562 894.786 179.562C897.133 179.562 899.319 178.975 901.346 177.802C903.373 176.629 904.999 174.922 906.226 172.682C907.506 170.389 908.146 167.722 908.146 164.682ZM969.005 142.682L941.965 207.482H932.525L941.485 186.042L924.125 142.682H934.285L946.685 176.282L959.565 142.682H969.005ZM1007.31 150.122V174.522C1007.31 176.175 1007.68 177.375 1008.43 178.122C1009.23 178.815 1010.56 179.162 1012.43 179.162H1018.03V186.762H1010.83C1006.72 186.762 1003.58 185.802 1001.39 183.882C999.202 181.962 998.108 178.842 998.108 174.522V150.122H992.908V142.682H998.108V131.722H1007.31V142.682H1018.03V150.122H1007.31ZM1045.55 187.482C1041.39 187.482 1037.63 186.549 1034.27 184.682C1030.91 182.762 1028.27 180.095 1026.35 176.682C1024.43 173.215 1023.47 169.215 1023.47 164.682C1023.47 160.202 1024.46 156.229 1026.43 152.762C1028.41 149.295 1031.1 146.629 1034.51 144.762C1037.93 142.895 1041.74 141.962 1045.95 141.962C1050.17 141.962 1053.98 142.895 1057.39 144.762C1060.81 146.629 1063.5 149.295 1065.47 152.762C1067.45 156.229 1068.43 160.202 1068.43 164.682C1068.43 169.162 1067.42 173.135 1065.39 176.602C1063.37 180.069 1060.59 182.762 1057.07 184.682C1053.61 186.549 1049.77 187.482 1045.55 187.482ZM1045.55 179.562C1047.9 179.562 1050.09 179.002 1052.11 177.882C1054.19 176.762 1055.87 175.082 1057.15 172.842C1058.43 170.602 1059.07 167.882 1059.07 164.682C1059.07 161.482 1058.46 158.789 1057.23 156.602C1056.01 154.362 1054.38 152.682 1052.35 151.562C1050.33 150.442 1048.14 149.882 1045.79 149.882C1043.45 149.882 1041.26 150.442 1039.23 151.562C1037.26 152.682 1035.69 154.362 1034.51 156.602C1033.34 158.789 1032.75 161.482 1032.75 164.682C1032.75 169.429 1033.95 173.109 1036.35 175.722C1038.81 178.282 1041.87 179.562 1045.55 179.562ZM1095.19 164.682C1095.19 160.149 1096.1 156.175 1097.91 152.762C1099.78 149.295 1102.34 146.629 1105.59 144.762C1108.84 142.895 1112.58 141.962 1116.79 141.962C1122.12 141.962 1126.52 143.242 1129.99 145.802C1133.51 148.309 1135.88 151.909 1137.11 156.602H1127.27C1126.47 154.415 1125.19 152.709 1123.43 151.482C1121.67 150.255 1119.46 149.642 1116.79 149.642C1113.06 149.642 1110.07 150.975 1107.83 153.642C1105.64 156.255 1104.55 159.935 1104.55 164.682C1104.55 169.429 1105.64 173.135 1107.83 175.802C1110.07 178.469 1113.06 179.802 1116.79 179.802C1122.07 179.802 1125.56 177.482 1127.27 172.842H1137.11C1135.83 177.322 1133.43 180.895 1129.91 183.562C1126.39 186.175 1122.02 187.482 1116.79 187.482C1112.58 187.482 1108.84 186.549 1105.59 184.682C1102.34 182.762 1099.78 180.095 1097.91 176.682C1096.1 173.215 1095.19 169.215 1095.19 164.682ZM1165.32 187.482C1161.16 187.482 1157.4 186.549 1154.04 184.682C1150.68 182.762 1148.04 180.095 1146.12 176.682C1144.2 173.215 1143.24 169.215 1143.24 164.682C1143.24 160.202 1144.23 156.229 1146.2 152.762C1148.17 149.295 1150.87 146.629 1154.28 144.762C1157.69 142.895 1161.51 141.962 1165.72 141.962C1169.93 141.962 1173.75 142.895 1177.16 144.762C1180.57 146.629 1183.27 149.295 1185.24 152.762C1187.21 156.229 1188.2 160.202 1188.2 164.682C1188.2 169.162 1187.19 173.135 1185.16 176.602C1183.13 180.069 1180.36 182.762 1176.84 184.682C1173.37 186.549 1169.53 187.482 1165.32 187.482ZM1165.32 179.562C1167.67 179.562 1169.85 179.002 1171.88 177.882C1173.96 176.762 1175.64 175.082 1176.92 172.842C1178.2 170.602 1178.84 167.882 1178.84 164.682C1178.84 161.482 1178.23 158.789 1177 156.602C1175.77 154.362 1174.15 152.682 1172.12 151.562C1170.09 150.442 1167.91 149.882 1165.56 149.882C1163.21 149.882 1161.03 150.442 1159 151.562C1157.03 152.682 1155.45 154.362 1154.28 156.602C1153.11 158.789 1152.52 161.482 1152.52 164.682C1152.52 169.429 1153.72 173.109 1156.12 175.722C1158.57 178.282 1161.64 179.562 1165.32 179.562ZM1219.46 141.962C1222.92 141.962 1226.02 142.682 1228.74 144.122C1231.51 145.562 1233.67 147.695 1235.22 150.522C1236.76 153.349 1237.54 156.762 1237.54 160.762V186.762H1228.5V162.122C1228.5 158.175 1227.51 155.162 1225.54 153.082C1223.56 150.949 1220.87 149.882 1217.46 149.882C1214.04 149.882 1211.32 150.949 1209.3 153.082C1207.32 155.162 1206.34 158.175 1206.34 162.122V186.762H1197.22V142.682H1206.34V147.722C1207.83 145.909 1209.72 144.495 1212.02 143.482C1214.36 142.469 1216.84 141.962 1219.46 141.962ZM1267.65 150.122H1259.49V186.762H1250.29V150.122H1245.09V142.682H1250.29V139.562C1250.29 134.495 1251.62 130.815 1254.29 128.522C1257.01 126.175 1261.25 125.002 1267.01 125.002V132.602C1264.24 132.602 1262.29 133.135 1261.17 134.202C1260.05 135.215 1259.49 137.002 1259.49 139.562V142.682H1267.65V150.122ZM1280.37 136.842C1278.72 136.842 1277.33 136.282 1276.21 135.162C1275.09 134.042 1274.53 132.655 1274.53 131.002C1274.53 129.349 1275.09 127.962 1276.21 126.842C1277.33 125.722 1278.72 125.162 1280.37 125.162C1281.97 125.162 1283.33 125.722 1284.45 126.842C1285.57 127.962 1286.13 129.349 1286.13 131.002C1286.13 132.655 1285.57 134.042 1284.45 135.162C1283.33 136.282 1281.97 136.842 1280.37 136.842ZM1284.85 142.682V186.762H1275.73V142.682H1284.85ZM1314.58 141.962C1318 141.962 1321.01 142.655 1323.62 144.042C1326.29 145.375 1328.37 147.055 1329.86 149.082V142.682H1339.06V187.482C1339.06 191.535 1338.21 195.135 1336.5 198.282C1334.8 201.482 1332.32 203.989 1329.06 205.802C1325.86 207.615 1322.02 208.522 1317.54 208.522C1311.57 208.522 1306.61 207.109 1302.66 204.282C1298.72 201.509 1296.48 197.722 1295.94 192.922H1304.98C1305.68 195.215 1307.14 197.055 1309.38 198.442C1311.68 199.882 1314.4 200.602 1317.54 200.602C1321.22 200.602 1324.18 199.482 1326.42 197.242C1328.72 195.002 1329.86 191.749 1329.86 187.482V180.122C1328.32 182.202 1326.21 183.962 1323.54 185.402C1320.93 186.789 1317.94 187.482 1314.58 187.482C1310.74 187.482 1307.22 186.522 1304.02 184.602C1300.88 182.629 1298.37 179.909 1296.5 176.442C1294.69 172.922 1293.78 168.949 1293.78 164.522C1293.78 160.095 1294.69 156.175 1296.5 152.762C1298.37 149.349 1300.88 146.709 1304.02 144.842C1307.22 142.922 1310.74 141.962 1314.58 141.962ZM1329.86 164.682C1329.86 161.642 1329.22 159.002 1327.94 156.762C1326.72 154.522 1325.09 152.815 1323.06 151.642C1321.04 150.469 1318.85 149.882 1316.5 149.882C1314.16 149.882 1311.97 150.469 1309.94 151.642C1307.92 152.762 1306.26 154.442 1304.98 156.682C1303.76 158.869 1303.14 161.482 1303.14 164.522C1303.14 167.562 1303.76 170.229 1304.98 172.522C1306.26 174.815 1307.92 176.575 1309.94 177.802C1312.02 178.975 1314.21 179.562 1316.5 179.562C1318.85 179.562 1321.04 178.975 1323.06 177.802C1325.09 176.629 1326.72 174.922 1327.94 172.682C1329.22 170.389 1329.86 167.722 1329.86 164.682Z"
          fill="white"/>
    <defs>
        <linearGradient id="paint0_linear_4_39" x1="-433.335" y1="-108.073" x2="-135.82" y2="1051.65"
                        gradientUnits="userSpaceOnUse">
            <stop stop-color="#0FFFFB"/>
            <stop offset="1" stop-color="#1EFF8E"/>
        </linearGradient>
        <linearGradient id="paint1_linear_4_39" x1="101.117" y1="99.2215" x2="310.494" y2="322.435"
                        gradientUnits="userSpaceOnUse">
            <stop stop-color="#0FFFFB"/>
            <stop offset="1" stop-color="#1EFF8E"/>
        </linearGradient>
        <linearGradient id="paint2_linear_4_39" x1="34.4663" y1="16.1437" x2="284.552" y2="112.259"
                        gradientUnits="userSpaceOnUse">
            <stop stop-color="#0FFFFB"/>
            <stop offset="1" stop-color="#1EFF8E"/>
        </linearGradient>
        <linearGradient id="paint3_linear_4_39" x1="242.514" y1="16.1437" x2="492.599" y2="112.259"
                        gradientUnits="userSpaceOnUse">
            <stop stop-color="#0FFFFB"/>
            <stop offset="1" stop-color="#1EFF8E"/>
        </linearGradient>
    </defs>
</svg>
