<svg width="1295" height="655" viewBox="0 0 1295 655" fill="none" xmlns="http://www.w3.org/2000/svg">
    <rect x="3.90283" y="4.26318" width="1287" height="647" rx="59.5" fill="#171717" stroke="url(#paint0_linear_4_47)"
          stroke-width="7"/>
    <path d="M580.027 331.642V364.762H576.667V338.314L564.859 364.762H562.411L550.603 338.41V364.762H547.243V331.642H550.795L563.611 360.346L576.427 331.642H580.027ZM586.113 351.61C586.113 348.922 586.641 346.57 587.697 344.554C588.785 342.506 590.273 340.938 592.161 339.85C594.081 338.73 596.241 338.17 598.641 338.17C601.137 338.17 603.281 338.746 605.073 339.898C606.897 341.05 608.209 342.522 609.009 344.314V338.554H612.369V364.762H609.009V358.954C608.177 360.746 606.849 362.234 605.025 363.418C603.233 364.57 601.089 365.146 598.593 365.146C596.225 365.146 594.081 364.586 592.161 363.466C590.273 362.346 588.785 360.762 587.697 358.714C586.641 356.666 586.113 354.298 586.113 351.61ZM609.009 351.658C609.009 349.546 608.577 347.69 607.713 346.09C606.849 344.49 605.665 343.258 604.161 342.394C602.689 341.53 601.057 341.098 599.265 341.098C597.409 341.098 595.745 341.514 594.273 342.346C592.801 343.178 591.633 344.394 590.769 345.994C589.937 347.562 589.521 349.434 589.521 351.61C589.521 353.754 589.937 355.642 590.769 357.274C591.633 358.874 592.801 360.106 594.273 360.97C595.745 361.802 597.409 362.218 599.265 362.218C601.057 362.218 602.689 361.786 604.161 360.922C605.665 360.058 606.849 358.826 607.713 357.226C608.577 355.626 609.009 353.77 609.009 351.658ZM634.2 364.762L623.4 353.002V364.762H620.04V329.242H623.4V350.266L633.96 338.554H638.664L626.232 351.61L638.76 364.762H634.2ZM644.782 333.61C644.11 333.61 643.534 333.37 643.054 332.89C642.574 332.41 642.334 331.818 642.334 331.114C642.334 330.41 642.574 329.834 643.054 329.386C643.534 328.906 644.11 328.666 644.782 328.666C645.454 328.666 646.03 328.906 646.51 329.386C646.99 329.834 647.23 330.41 647.23 331.114C647.23 331.818 646.99 332.41 646.51 332.89C646.03 333.37 645.454 333.61 644.782 333.61ZM646.462 338.554V364.762H643.102V338.554H646.462ZM666.359 338.074C669.495 338.074 672.055 339.05 674.039 341.002C676.023 342.922 677.015 345.722 677.015 349.402V364.762H673.703V349.786C673.703 346.938 672.983 344.762 671.543 343.258C670.135 341.754 668.199 341.002 665.735 341.002C663.207 341.002 661.191 341.802 659.687 343.402C658.183 345.002 657.431 347.354 657.431 350.458V364.762H654.071V338.554H657.431V343.018C658.263 341.418 659.463 340.202 661.031 339.37C662.599 338.506 664.375 338.074 666.359 338.074ZM695.438 338.17C697.902 338.17 700.046 338.746 701.87 339.898C703.694 341.05 705.006 342.506 705.806 344.266V338.554H709.166V365.434C709.166 367.834 708.638 369.962 707.582 371.818C706.558 373.674 705.118 375.098 703.262 376.09C701.406 377.114 699.294 377.626 696.926 377.626C693.566 377.626 690.766 376.826 688.526 375.226C686.318 373.626 684.942 371.45 684.398 368.698H687.71C688.286 370.522 689.374 371.978 690.974 373.066C692.606 374.154 694.59 374.698 696.926 374.698C698.622 374.698 700.142 374.33 701.486 373.594C702.83 372.89 703.886 371.834 704.654 370.426C705.422 369.018 705.806 367.354 705.806 365.434V358.954C704.974 360.746 703.646 362.234 701.822 363.418C700.03 364.57 697.902 365.146 695.438 365.146C693.038 365.146 690.878 364.586 688.958 363.466C687.07 362.346 685.582 360.762 684.494 358.714C683.438 356.666 682.91 354.298 682.91 351.61C682.91 348.922 683.438 346.57 684.494 344.554C685.582 342.506 687.07 340.938 688.958 339.85C690.878 338.73 693.038 338.17 695.438 338.17ZM705.806 351.658C705.806 349.546 705.374 347.69 704.51 346.09C703.646 344.49 702.462 343.258 700.958 342.394C699.486 341.53 697.854 341.098 696.062 341.098C694.206 341.098 692.542 341.514 691.07 342.346C689.598 343.178 688.43 344.394 687.566 345.994C686.734 347.562 686.318 349.434 686.318 351.61C686.318 353.754 686.734 355.642 687.566 357.274C688.43 358.874 689.598 360.106 691.07 360.97C692.542 361.802 694.206 362.218 696.062 362.218C697.854 362.218 699.486 361.786 700.958 360.922C702.462 360.058 703.646 358.826 704.51 357.226C705.374 355.626 705.806 353.77 705.806 351.658ZM761.208 338.074C764.28 338.074 766.776 339.05 768.696 341.002C770.648 342.922 771.624 345.722 771.624 349.402V364.762H768.312V349.786C768.312 346.938 767.624 344.762 766.248 343.258C764.872 341.754 763 341.002 760.632 341.002C758.168 341.002 756.2 341.818 754.728 343.45C753.256 345.082 752.52 347.45 752.52 350.554V364.762H749.208V349.786C749.208 346.938 748.52 344.762 747.144 343.258C745.768 341.754 743.88 341.002 741.48 341.002C739.016 341.002 737.048 341.818 735.576 343.45C734.104 345.082 733.368 347.45 733.368 350.554V364.762H730.008V338.554H733.368V343.066C734.2 341.434 735.384 340.202 736.92 339.37C738.456 338.506 740.168 338.074 742.056 338.074C744.328 338.074 746.312 338.618 748.008 339.706C749.736 340.794 750.984 342.394 751.752 344.506C752.456 342.426 753.656 340.842 755.352 339.754C757.08 338.634 759.032 338.074 761.208 338.074ZM790.559 365.146C788.095 365.146 785.871 364.602 783.887 363.514C781.935 362.394 780.383 360.826 779.231 358.81C778.111 356.762 777.551 354.378 777.551 351.658C777.551 348.938 778.127 346.57 779.279 344.554C780.431 342.506 781.999 340.938 783.983 339.85C785.967 338.73 788.191 338.17 790.655 338.17C793.119 338.17 795.343 338.73 797.327 339.85C799.343 340.938 800.911 342.506 802.031 344.554C803.183 346.57 803.759 348.938 803.759 351.658C803.759 354.346 803.183 356.714 802.031 358.762C800.879 360.81 799.295 362.394 797.279 363.514C795.263 364.602 793.023 365.146 790.559 365.146ZM790.559 362.218C792.287 362.218 793.887 361.834 795.359 361.066C796.831 360.266 798.015 359.082 798.911 357.514C799.839 355.914 800.303 353.962 800.303 351.658C800.303 349.354 799.855 347.418 798.959 345.85C798.063 344.25 796.879 343.066 795.407 342.298C793.935 341.498 792.335 341.098 790.607 341.098C788.879 341.098 787.279 341.498 785.807 342.298C784.335 343.066 783.151 344.25 782.255 345.85C781.391 347.418 780.959 349.354 780.959 351.658C780.959 353.962 781.391 355.914 782.255 357.514C783.151 359.082 784.319 360.266 785.759 361.066C787.231 361.834 788.831 362.218 790.559 362.218ZM808.347 351.61C808.347 348.922 808.891 346.57 809.979 344.554C811.067 342.506 812.555 340.938 814.443 339.85C816.363 338.73 818.523 338.17 820.923 338.17C823.227 338.17 825.307 338.73 827.163 339.85C829.019 340.97 830.379 342.426 831.243 344.218V329.242H834.603V364.762H831.243V358.906C830.443 360.73 829.131 362.234 827.307 363.418C825.483 364.57 823.339 365.146 820.875 365.146C818.475 365.146 816.315 364.586 814.395 363.466C812.507 362.346 811.019 360.762 809.931 358.714C808.875 356.666 808.347 354.298 808.347 351.61ZM831.243 351.658C831.243 349.546 830.811 347.69 829.947 346.09C829.083 344.49 827.899 343.258 826.395 342.394C824.923 341.53 823.291 341.098 821.499 341.098C819.643 341.098 817.979 341.514 816.507 342.346C815.035 343.178 813.867 344.394 813.003 345.994C812.171 347.562 811.755 349.434 811.755 351.61C811.755 353.754 812.171 355.642 813.003 357.274C813.867 358.874 815.035 360.106 816.507 360.97C817.979 361.802 819.643 362.218 821.499 362.218C823.291 362.218 824.923 361.786 826.395 360.922C827.899 360.058 829.083 358.826 829.947 357.226C830.811 355.626 831.243 353.77 831.243 351.658ZM851.298 365.146C848.29 365.146 845.826 364.458 843.906 363.082C842.018 361.674 840.962 359.77 840.738 357.37H844.194C844.354 358.842 845.042 360.042 846.258 360.97C847.506 361.866 849.17 362.314 851.25 362.314C853.074 362.314 854.498 361.882 855.522 361.018C856.578 360.154 857.106 359.082 857.106 357.802C857.106 356.906 856.818 356.17 856.242 355.594C855.666 355.018 854.93 354.57 854.034 354.25C853.17 353.898 851.986 353.53 850.482 353.146C848.53 352.634 846.946 352.122 845.73 351.61C844.514 351.098 843.474 350.346 842.61 349.354C841.778 348.33 841.362 346.97 841.362 345.274C841.362 343.994 841.746 342.81 842.514 341.722C843.282 340.634 844.37 339.77 845.778 339.13C847.186 338.49 848.786 338.17 850.578 338.17C853.394 338.17 855.666 338.89 857.394 340.33C859.122 341.738 860.05 343.69 860.178 346.186H856.818C856.722 344.65 856.114 343.418 854.994 342.49C853.906 341.53 852.402 341.05 850.482 341.05C848.786 341.05 847.41 341.45 846.354 342.25C845.298 343.05 844.77 344.042 844.77 345.226C844.77 346.25 845.074 347.098 845.682 347.77C846.322 348.41 847.106 348.922 848.034 349.306C848.962 349.658 850.21 350.058 851.778 350.506C853.666 351.018 855.17 351.514 856.29 351.994C857.41 352.474 858.37 353.178 859.17 354.106C859.97 355.034 860.386 356.266 860.418 357.802C860.418 359.21 860.034 360.474 859.266 361.594C858.498 362.682 857.426 363.546 856.05 364.186C854.674 364.826 853.09 365.146 851.298 365.146ZM903.627 350.314C903.627 351.466 903.595 352.346 903.531 352.954H881.787C881.883 354.938 882.363 356.634 883.227 358.042C884.091 359.45 885.227 360.522 886.635 361.258C888.043 361.962 889.579 362.314 891.243 362.314C893.419 362.314 895.243 361.786 896.715 360.73C898.219 359.674 899.211 358.25 899.691 356.458H903.243C902.603 359.018 901.227 361.114 899.115 362.746C897.035 364.346 894.411 365.146 891.243 365.146C888.779 365.146 886.571 364.602 884.619 363.514C882.667 362.394 881.131 360.826 880.011 358.81C878.923 356.762 878.379 354.378 878.379 351.658C878.379 348.938 878.923 346.554 880.011 344.506C881.099 342.458 882.619 340.89 884.571 339.802C886.523 338.714 888.747 338.17 891.243 338.17C893.739 338.17 895.915 338.714 897.771 339.802C899.659 340.89 901.099 342.362 902.091 344.218C903.115 346.042 903.627 348.074 903.627 350.314ZM900.219 350.218C900.251 348.266 899.851 346.602 899.019 345.226C898.219 343.85 897.115 342.81 895.707 342.106C894.299 341.402 892.763 341.05 891.099 341.05C888.603 341.05 886.475 341.85 884.715 343.45C882.955 345.05 881.979 347.306 881.787 350.218H900.219ZM908.238 351.61C908.238 348.922 908.766 346.57 909.822 344.554C910.91 342.506 912.398 340.938 914.286 339.85C916.206 338.73 918.366 338.17 920.766 338.17C923.262 338.17 925.406 338.746 927.198 339.898C929.022 341.05 930.334 342.522 931.134 344.314V338.554H934.494V364.762H931.134V358.954C930.302 360.746 928.974 362.234 927.15 363.418C925.358 364.57 923.214 365.146 920.718 365.146C918.35 365.146 916.206 364.586 914.286 363.466C912.398 362.346 910.91 360.762 909.822 358.714C908.766 356.666 908.238 354.298 908.238 351.61ZM931.134 351.658C931.134 349.546 930.702 347.69 929.838 346.09C928.974 344.49 927.79 343.258 926.286 342.394C924.814 341.53 923.182 341.098 921.39 341.098C919.534 341.098 917.87 341.514 916.398 342.346C914.926 343.178 913.758 344.394 912.894 345.994C912.062 347.562 911.646 349.434 911.646 351.61C911.646 353.754 912.062 355.642 912.894 357.274C913.758 358.874 914.926 360.106 916.398 360.97C917.87 361.802 919.534 362.218 921.39 362.218C923.182 362.218 924.814 361.786 926.286 360.922C927.79 360.058 928.974 358.826 929.838 357.226C930.702 355.626 931.134 353.77 931.134 351.658ZM951.189 365.146C948.181 365.146 945.717 364.458 943.797 363.082C941.909 361.674 940.853 359.77 940.629 357.37H944.085C944.245 358.842 944.933 360.042 946.149 360.97C947.397 361.866 949.061 362.314 951.141 362.314C952.965 362.314 954.389 361.882 955.413 361.018C956.469 360.154 956.997 359.082 956.997 357.802C956.997 356.906 956.709 356.17 956.133 355.594C955.557 355.018 954.821 354.57 953.925 354.25C953.061 353.898 951.877 353.53 950.373 353.146C948.421 352.634 946.837 352.122 945.621 351.61C944.405 351.098 943.365 350.346 942.501 349.354C941.669 348.33 941.253 346.97 941.253 345.274C941.253 343.994 941.637 342.81 942.405 341.722C943.173 340.634 944.261 339.77 945.669 339.13C947.077 338.49 948.677 338.17 950.469 338.17C953.285 338.17 955.557 338.89 957.285 340.33C959.013 341.738 959.941 343.69 960.069 346.186H956.709C956.613 344.65 956.005 343.418 954.885 342.49C953.797 341.53 952.293 341.05 950.373 341.05C948.677 341.05 947.301 341.45 946.245 342.25C945.189 343.05 944.661 344.042 944.661 345.226C944.661 346.25 944.965 347.098 945.573 347.77C946.213 348.41 946.997 348.922 947.925 349.306C948.853 349.658 950.101 350.058 951.669 350.506C953.557 351.018 955.061 351.514 956.181 351.994C957.301 352.474 958.261 353.178 959.061 354.106C959.861 355.034 960.277 356.266 960.309 357.802C960.309 359.21 959.925 360.474 959.157 361.594C958.389 362.682 957.317 363.546 955.941 364.186C954.565 364.826 952.981 365.146 951.189 365.146ZM968.313 333.61C967.641 333.61 967.065 333.37 966.585 332.89C966.105 332.41 965.865 331.818 965.865 331.114C965.865 330.41 966.105 329.834 966.585 329.386C967.065 328.906 967.641 328.666 968.313 328.666C968.985 328.666 969.561 328.906 970.041 329.386C970.521 329.834 970.761 330.41 970.761 331.114C970.761 331.818 970.521 332.41 970.041 332.89C969.561 333.37 968.985 333.61 968.313 333.61ZM969.993 338.554V364.762H966.633V338.554H969.993ZM1001.31 350.314C1001.31 351.466 1001.28 352.346 1001.22 352.954H979.474C979.57 354.938 980.05 356.634 980.914 358.042C981.778 359.45 982.914 360.522 984.322 361.258C985.73 361.962 987.266 362.314 988.93 362.314C991.106 362.314 992.93 361.786 994.402 360.73C995.906 359.674 996.898 358.25 997.378 356.458H1000.93C1000.29 359.018 998.914 361.114 996.802 362.746C994.722 364.346 992.098 365.146 988.93 365.146C986.466 365.146 984.258 364.602 982.306 363.514C980.354 362.394 978.818 360.826 977.698 358.81C976.61 356.762 976.066 354.378 976.066 351.658C976.066 348.938 976.61 346.554 977.698 344.506C978.786 342.458 980.306 340.89 982.258 339.802C984.21 338.714 986.434 338.17 988.93 338.17C991.426 338.17 993.602 338.714 995.458 339.802C997.346 340.89 998.786 342.362 999.778 344.218C1000.8 346.042 1001.31 348.074 1001.31 350.314ZM997.906 350.218C997.938 348.266 997.538 346.602 996.706 345.226C995.906 343.85 994.802 342.81 993.394 342.106C991.986 341.402 990.45 341.05 988.786 341.05C986.29 341.05 984.162 341.85 982.402 343.45C980.642 345.05 979.666 347.306 979.474 350.218H997.906ZM1010.82 343.21C1011.56 341.578 1012.68 340.314 1014.18 339.418C1015.72 338.522 1017.59 338.074 1019.8 338.074V341.578H1018.89C1016.45 341.578 1014.5 342.234 1013.03 343.546C1011.56 344.858 1010.82 347.05 1010.82 350.122V364.762H1007.46V338.554H1010.82V343.21ZM1042.39 341.386V357.658C1042.39 359.258 1042.7 360.362 1043.3 360.97C1043.91 361.578 1044.98 361.882 1046.52 361.882H1049.59V364.762H1045.99C1043.62 364.762 1041.86 364.218 1040.71 363.13C1039.56 362.01 1038.98 360.186 1038.98 357.658V341.386H1035.34V338.554H1038.98V331.978H1042.39V338.554H1049.59V341.386H1042.39ZM1066.61 365.146C1064.14 365.146 1061.92 364.602 1059.93 363.514C1057.98 362.394 1056.43 360.826 1055.28 358.81C1054.16 356.762 1053.6 354.378 1053.6 351.658C1053.6 348.938 1054.17 346.57 1055.33 344.554C1056.48 342.506 1058.05 340.938 1060.03 339.85C1062.01 338.73 1064.24 338.17 1066.7 338.17C1069.17 338.17 1071.39 338.73 1073.37 339.85C1075.39 340.938 1076.96 342.506 1078.08 344.554C1079.23 346.57 1079.81 348.938 1079.81 351.658C1079.81 354.346 1079.23 356.714 1078.08 358.762C1076.93 360.81 1075.34 362.394 1073.33 363.514C1071.31 364.602 1069.07 365.146 1066.61 365.146ZM1066.61 362.218C1068.33 362.218 1069.93 361.834 1071.41 361.066C1072.88 360.266 1074.06 359.082 1074.96 357.514C1075.89 355.914 1076.35 353.962 1076.35 351.658C1076.35 349.354 1075.9 347.418 1075.01 345.85C1074.11 344.25 1072.93 343.066 1071.45 342.298C1069.98 341.498 1068.38 341.098 1066.65 341.098C1064.93 341.098 1063.33 341.498 1061.85 342.298C1060.38 343.066 1059.2 344.25 1058.3 345.85C1057.44 347.418 1057.01 349.354 1057.01 351.658C1057.01 353.962 1057.44 355.914 1058.3 357.514C1059.2 359.082 1060.37 360.266 1061.81 361.066C1063.28 361.834 1064.88 362.218 1066.61 362.218ZM545.707 423.658C545.707 420.938 546.251 418.57 547.339 416.554C548.427 414.506 549.931 412.938 551.851 411.85C553.771 410.73 555.963 410.17 558.427 410.17C561.659 410.17 564.315 410.97 566.395 412.57C568.507 414.17 569.867 416.346 570.475 419.098H566.875C566.427 417.21 565.451 415.738 563.947 414.682C562.475 413.594 560.635 413.05 558.427 413.05C556.667 413.05 555.083 413.45 553.675 414.25C552.267 415.05 551.147 416.25 550.315 417.85C549.515 419.418 549.115 421.354 549.115 423.658C549.115 425.962 549.515 427.914 550.315 429.514C551.147 431.114 552.267 432.314 553.675 433.114C555.083 433.914 556.667 434.314 558.427 434.314C560.635 434.314 562.475 433.786 563.947 432.73C565.451 431.642 566.427 430.138 566.875 428.218H570.475C569.867 430.906 568.507 433.066 566.395 434.698C564.283 436.33 561.627 437.146 558.427 437.146C555.963 437.146 553.771 436.602 551.851 435.514C549.931 434.394 548.427 432.826 547.339 430.81C546.251 428.762 545.707 426.378 545.707 423.658ZM588.152 437.146C585.688 437.146 583.464 436.602 581.48 435.514C579.528 434.394 577.976 432.826 576.824 430.81C575.704 428.762 575.144 426.378 575.144 423.658C575.144 420.938 575.72 418.57 576.872 416.554C578.024 414.506 579.592 412.938 581.576 411.85C583.56 410.73 585.784 410.17 588.248 410.17C590.712 410.17 592.936 410.73 594.92 411.85C596.936 412.938 598.504 414.506 599.624 416.554C600.776 418.57 601.352 420.938 601.352 423.658C601.352 426.346 600.776 428.714 599.624 430.762C598.472 432.81 596.888 434.394 594.872 435.514C592.856 436.602 590.616 437.146 588.152 437.146ZM588.152 434.218C589.88 434.218 591.48 433.834 592.952 433.066C594.424 432.266 595.608 431.082 596.504 429.514C597.432 427.914 597.896 425.962 597.896 423.658C597.896 421.354 597.448 419.418 596.552 417.85C595.656 416.25 594.472 415.066 593 414.298C591.528 413.498 589.928 413.098 588.2 413.098C586.472 413.098 584.872 413.498 583.4 414.298C581.928 415.066 580.744 416.25 579.848 417.85C578.984 419.418 578.552 421.354 578.552 423.658C578.552 425.962 578.984 427.914 579.848 429.514C580.744 431.082 581.912 432.266 583.352 433.066C584.824 433.834 586.424 434.218 588.152 434.218ZM619.765 410.074C622.901 410.074 625.461 411.05 627.445 413.002C629.429 414.922 630.421 417.722 630.421 421.402V436.762H627.109V421.786C627.109 418.938 626.389 416.762 624.949 415.258C623.541 413.754 621.605 413.002 619.141 413.002C616.613 413.002 614.597 413.802 613.093 415.402C611.589 417.002 610.837 419.354 610.837 422.458V436.762H607.477V410.554H610.837V415.018C611.669 413.418 612.869 412.202 614.437 411.37C616.005 410.506 617.781 410.074 619.765 410.074ZM648.172 413.386H642.076V436.762H638.716V413.386H635.068V410.554H638.716V408.73C638.716 405.882 639.436 403.786 640.876 402.442C642.348 401.098 644.716 400.426 647.98 400.426V403.306C645.804 403.306 644.268 403.722 643.372 404.554C642.508 405.386 642.076 406.778 642.076 408.73V410.554H648.172V413.386ZM655.142 405.61C654.47 405.61 653.894 405.37 653.414 404.89C652.934 404.41 652.694 403.818 652.694 403.114C652.694 402.41 652.934 401.834 653.414 401.386C653.894 400.906 654.47 400.666 655.142 400.666C655.814 400.666 656.39 400.906 656.87 401.386C657.35 401.834 657.59 402.41 657.59 403.114C657.59 403.818 657.35 404.41 656.87 404.89C656.39 405.37 655.814 405.61 655.142 405.61ZM656.822 410.554V436.762H653.462V410.554H656.822ZM675.422 410.17C677.886 410.17 680.03 410.746 681.854 411.898C683.678 413.05 684.99 414.506 685.79 416.266V410.554H689.15V437.434C689.15 439.834 688.622 441.962 687.566 443.818C686.542 445.674 685.102 447.098 683.246 448.09C681.39 449.114 679.278 449.626 676.91 449.626C673.55 449.626 670.75 448.826 668.51 447.226C666.302 445.626 664.926 443.45 664.382 440.698H667.694C668.27 442.522 669.358 443.978 670.958 445.066C672.59 446.154 674.574 446.698 676.91 446.698C678.606 446.698 680.126 446.33 681.47 445.594C682.814 444.89 683.87 443.834 684.638 442.426C685.406 441.018 685.79 439.354 685.79 437.434V430.954C684.958 432.746 683.63 434.234 681.806 435.418C680.014 436.57 677.886 437.146 675.422 437.146C673.022 437.146 670.862 436.586 668.942 435.466C667.054 434.346 665.566 432.762 664.478 430.714C663.422 428.666 662.894 426.298 662.894 423.61C662.894 420.922 663.422 418.57 664.478 416.554C665.566 414.506 667.054 412.938 668.942 411.85C670.862 410.73 673.022 410.17 675.422 410.17ZM685.79 423.658C685.79 421.546 685.358 419.69 684.494 418.09C683.63 416.49 682.446 415.258 680.942 414.394C679.47 413.53 677.838 413.098 676.046 413.098C674.19 413.098 672.526 413.514 671.054 414.346C669.582 415.178 668.414 416.394 667.55 417.994C666.718 419.562 666.302 421.434 666.302 423.61C666.302 425.754 666.718 427.642 667.55 429.274C668.414 430.874 669.582 432.106 671.054 432.97C672.526 433.802 674.19 434.218 676.046 434.218C677.838 434.218 679.47 433.786 680.942 432.922C682.446 432.058 683.63 430.826 684.494 429.226C685.358 427.626 685.79 425.77 685.79 423.658ZM721.465 437.146C719.001 437.146 716.777 436.602 714.793 435.514C712.841 434.394 711.289 432.826 710.137 430.81C709.017 428.762 708.457 426.378 708.457 423.658C708.457 420.938 709.033 418.57 710.185 416.554C711.337 414.506 712.905 412.938 714.889 411.85C716.873 410.73 719.097 410.17 721.561 410.17C724.025 410.17 726.249 410.73 728.233 411.85C730.249 412.938 731.817 414.506 732.937 416.554C734.089 418.57 734.665 420.938 734.665 423.658C734.665 426.346 734.089 428.714 732.937 430.762C731.785 432.81 730.201 434.394 728.185 435.514C726.169 436.602 723.929 437.146 721.465 437.146ZM721.465 434.218C723.193 434.218 724.793 433.834 726.265 433.066C727.737 432.266 728.921 431.082 729.817 429.514C730.745 427.914 731.209 425.962 731.209 423.658C731.209 421.354 730.761 419.418 729.865 417.85C728.969 416.25 727.785 415.066 726.313 414.298C724.841 413.498 723.241 413.098 721.513 413.098C719.785 413.098 718.185 413.498 716.713 414.298C715.241 415.066 714.057 416.25 713.161 417.85C712.297 419.418 711.865 421.354 711.865 423.658C711.865 425.962 712.297 427.914 713.161 429.514C714.057 431.082 715.225 432.266 716.665 433.066C718.137 433.834 719.737 434.218 721.465 434.218ZM753.078 410.074C756.214 410.074 758.774 411.05 760.758 413.002C762.742 414.922 763.734 417.722 763.734 421.402V436.762H760.422V421.786C760.422 418.938 759.702 416.762 758.262 415.258C756.854 413.754 754.918 413.002 752.454 413.002C749.926 413.002 747.91 413.802 746.406 415.402C744.902 417.002 744.15 419.354 744.15 422.458V436.762H740.79V410.554H744.15V415.018C744.982 413.418 746.182 412.202 747.75 411.37C749.318 410.506 751.094 410.074 753.078 410.074ZM794.877 422.314C794.877 423.466 794.845 424.346 794.781 424.954H773.037C773.133 426.938 773.613 428.634 774.477 430.042C775.341 431.45 776.477 432.522 777.885 433.258C779.293 433.962 780.829 434.314 782.493 434.314C784.669 434.314 786.493 433.786 787.965 432.73C789.469 431.674 790.461 430.25 790.941 428.458H794.493C793.853 431.018 792.477 433.114 790.365 434.746C788.285 436.346 785.661 437.146 782.493 437.146C780.029 437.146 777.821 436.602 775.869 435.514C773.917 434.394 772.381 432.826 771.261 430.81C770.173 428.762 769.629 426.378 769.629 423.658C769.629 420.938 770.173 418.554 771.261 416.506C772.349 414.458 773.869 412.89 775.821 411.802C777.773 410.714 779.997 410.17 782.493 410.17C784.989 410.17 787.165 410.714 789.021 411.802C790.909 412.89 792.349 414.362 793.341 416.218C794.365 418.042 794.877 420.074 794.877 422.314ZM791.469 422.218C791.501 420.266 791.101 418.602 790.269 417.226C789.469 415.85 788.365 414.81 786.957 414.106C785.549 413.402 784.013 413.05 782.349 413.05C779.853 413.05 777.725 413.85 775.965 415.45C774.205 417.05 773.229 419.306 773.037 422.218H791.469ZM817.508 416.362C818.372 414.538 819.7 413.05 821.492 411.898C823.316 410.746 825.46 410.17 827.924 410.17C830.324 410.17 832.468 410.73 834.356 411.85C836.244 412.938 837.716 414.506 838.772 416.554C839.86 418.57 840.404 420.922 840.404 423.61C840.404 426.298 839.86 428.666 838.772 430.714C837.716 432.762 836.228 434.346 834.308 435.466C832.42 436.586 830.292 437.146 827.924 437.146C825.428 437.146 823.268 436.586 821.444 435.466C819.652 434.314 818.34 432.826 817.508 431.002V436.762H814.196V401.242H817.508V416.362ZM836.996 423.61C836.996 421.434 836.564 419.562 835.7 417.994C834.868 416.394 833.716 415.178 832.244 414.346C830.772 413.514 829.108 413.098 827.252 413.098C825.46 413.098 823.812 413.53 822.308 414.394C820.836 415.258 819.668 416.49 818.804 418.09C817.94 419.69 817.508 421.546 817.508 423.658C817.508 425.77 817.94 427.626 818.804 429.226C819.668 430.826 820.836 432.058 822.308 432.922C823.812 433.786 825.46 434.218 827.252 434.218C829.108 434.218 830.772 433.802 832.244 432.97C833.716 432.106 834.868 430.874 835.7 429.274C836.564 427.642 836.996 425.754 836.996 423.61ZM868.187 410.554L852.635 449.098H849.131L854.219 436.618L843.467 410.554H847.163L856.091 432.922L864.731 410.554H868.187ZM897.387 437.146C894.923 437.146 892.699 436.602 890.715 435.514C888.763 434.394 887.211 432.826 886.059 430.81C884.939 428.762 884.379 426.378 884.379 423.658C884.379 420.938 884.955 418.57 886.107 416.554C887.259 414.506 888.827 412.938 890.811 411.85C892.795 410.73 895.019 410.17 897.483 410.17C899.947 410.17 902.171 410.73 904.155 411.85C906.171 412.938 907.739 414.506 908.859 416.554C910.011 418.57 910.587 420.938 910.587 423.658C910.587 426.346 910.011 428.714 908.859 430.762C907.707 432.81 906.123 434.394 904.107 435.514C902.091 436.602 899.851 437.146 897.387 437.146ZM897.387 434.218C899.115 434.218 900.715 433.834 902.187 433.066C903.659 432.266 904.843 431.082 905.739 429.514C906.667 427.914 907.131 425.962 907.131 423.658C907.131 421.354 906.683 419.418 905.787 417.85C904.891 416.25 903.707 415.066 902.235 414.298C900.763 413.498 899.163 413.098 897.435 413.098C895.707 413.098 894.107 413.498 892.635 414.298C891.163 415.066 889.979 416.25 889.083 417.85C888.219 419.418 887.787 421.354 887.787 423.658C887.787 425.962 888.219 427.914 889.083 429.514C889.979 431.082 891.147 432.266 892.587 433.066C894.059 433.834 895.659 434.218 897.387 434.218ZM929 410.074C932.136 410.074 934.696 411.05 936.68 413.002C938.664 414.922 939.656 417.722 939.656 421.402V436.762H936.344V421.786C936.344 418.938 935.624 416.762 934.184 415.258C932.776 413.754 930.84 413.002 928.376 413.002C925.848 413.002 923.832 413.802 922.328 415.402C920.824 417.002 920.072 419.354 920.072 422.458V436.762H916.712V410.554H920.072V415.018C920.904 413.418 922.104 412.202 923.672 411.37C925.24 410.506 927.016 410.074 929 410.074ZM970.799 422.314C970.799 423.466 970.767 424.346 970.703 424.954H948.959C949.055 426.938 949.535 428.634 950.399 430.042C951.263 431.45 952.399 432.522 953.807 433.258C955.215 433.962 956.751 434.314 958.415 434.314C960.591 434.314 962.415 433.786 963.887 432.73C965.391 431.674 966.383 430.25 966.863 428.458H970.415C969.775 431.018 968.399 433.114 966.287 434.746C964.207 436.346 961.583 437.146 958.415 437.146C955.951 437.146 953.743 436.602 951.791 435.514C949.839 434.394 948.303 432.826 947.183 430.81C946.095 428.762 945.551 426.378 945.551 423.658C945.551 420.938 946.095 418.554 947.183 416.506C948.271 414.458 949.791 412.89 951.743 411.802C953.695 410.714 955.919 410.17 958.415 410.17C960.911 410.17 963.087 410.714 964.943 411.802C966.831 412.89 968.271 414.362 969.263 416.218C970.287 418.042 970.799 420.074 970.799 422.314ZM967.391 422.218C967.423 420.266 967.023 418.602 966.191 417.226C965.391 415.85 964.287 414.81 962.879 414.106C961.471 413.402 959.935 413.05 958.271 413.05C955.775 413.05 953.647 413.85 951.887 415.45C950.127 417.05 949.151 419.306 948.959 422.218H967.391Z"
          fill="white"/>
    <path d="M562.043 257.242H544.583L541.583 265.762H534.443L549.383 224.002H557.303L572.243 265.762H565.043L562.043 257.242ZM560.123 251.662L553.343 232.282L546.503 251.662H560.123ZM606.325 266.302C603.725 266.302 601.385 265.842 599.305 264.922C597.265 263.962 595.645 262.682 594.445 261.082C593.245 259.442 592.605 257.622 592.525 255.622H599.605C599.725 257.022 600.385 258.202 601.585 259.162C602.825 260.082 604.365 260.542 606.205 260.542C608.125 260.542 609.605 260.182 610.645 259.462C611.725 258.702 612.265 257.742 612.265 256.582C612.265 255.342 611.665 254.422 610.465 253.822C609.305 253.222 607.445 252.562 604.885 251.842C602.405 251.162 600.385 250.502 598.825 249.862C597.265 249.222 595.905 248.242 594.745 246.922C593.625 245.602 593.065 243.862 593.065 241.702C593.065 239.942 593.585 238.342 594.625 236.902C595.665 235.422 597.145 234.262 599.065 233.422C601.025 232.582 603.265 232.162 605.785 232.162C609.545 232.162 612.565 233.122 614.845 235.042C617.165 236.922 618.405 239.502 618.565 242.782H611.725C611.605 241.302 611.005 240.122 609.925 239.242C608.845 238.362 607.385 237.922 605.545 237.922C603.745 237.922 602.365 238.262 601.405 238.942C600.445 239.622 599.965 240.522 599.965 241.642C599.965 242.522 600.285 243.262 600.925 243.862C601.565 244.462 602.345 244.942 603.265 245.302C604.185 245.622 605.545 246.042 607.345 246.562C609.745 247.202 611.705 247.862 613.225 248.542C614.785 249.182 616.125 250.142 617.245 251.422C618.365 252.702 618.945 254.402 618.985 256.522C618.985 258.402 618.465 260.082 617.425 261.562C616.385 263.042 614.905 264.202 612.985 265.042C611.105 265.882 608.885 266.302 606.325 266.302ZM629.855 228.322C628.615 228.322 627.575 227.902 626.735 227.062C625.895 226.222 625.475 225.182 625.475 223.942C625.475 222.702 625.895 221.662 626.735 220.822C627.575 219.982 628.615 219.562 629.855 219.562C631.055 219.562 632.075 219.982 632.915 220.822C633.755 221.662 634.175 222.702 634.175 223.942C634.175 225.182 633.755 226.222 632.915 227.062C632.075 227.902 631.055 228.322 629.855 228.322ZM633.215 232.702V265.762H626.375V232.702H633.215ZM682.216 232.162C684.816 232.162 687.136 232.702 689.176 233.782C691.256 234.862 692.876 236.462 694.036 238.582C695.236 240.702 695.836 243.262 695.836 246.262V265.762H689.056V247.282C689.056 244.322 688.316 242.062 686.836 240.502C685.356 238.902 683.336 238.102 680.776 238.102C678.216 238.102 676.176 238.902 674.656 240.502C673.176 242.062 672.436 244.322 672.436 247.282V265.762H665.656V247.282C665.656 244.322 664.916 242.062 663.436 240.502C661.956 238.902 659.936 238.102 657.376 238.102C654.816 238.102 652.776 238.902 651.256 240.502C649.776 242.062 649.036 244.322 649.036 247.282V265.762H642.196V232.702H649.036V236.482C650.156 235.122 651.576 234.062 653.296 233.302C655.016 232.542 656.856 232.162 658.816 232.162C661.456 232.162 663.816 232.722 665.896 233.842C667.976 234.962 669.576 236.582 670.696 238.702C671.696 236.702 673.256 235.122 675.376 233.962C677.496 232.762 679.776 232.162 682.216 232.162ZM711.38 237.562C712.54 236.042 714.12 234.762 716.12 233.722C718.12 232.682 720.38 232.162 722.9 232.162C725.78 232.162 728.4 232.882 730.76 234.322C733.16 235.722 735.04 237.702 736.4 240.262C737.76 242.822 738.44 245.762 738.44 249.082C738.44 252.402 737.76 255.382 736.4 258.022C735.04 260.622 733.16 262.662 730.76 264.142C728.4 265.582 725.78 266.302 722.9 266.302C720.38 266.302 718.14 265.802 716.18 264.802C714.22 263.762 712.62 262.482 711.38 260.962V281.482H704.54V232.702H711.38V237.562ZM731.48 249.082C731.48 246.802 731 244.842 730.04 243.202C729.12 241.522 727.88 240.262 726.32 239.422C724.8 238.542 723.16 238.102 721.4 238.102C719.68 238.102 718.04 238.542 716.48 239.422C714.96 240.302 713.72 241.582 712.76 243.262C711.84 244.942 711.38 246.922 711.38 249.202C711.38 251.482 711.84 253.482 712.76 255.202C713.72 256.882 714.96 258.162 716.48 259.042C718.04 259.922 719.68 260.362 721.4 260.362C723.16 260.362 724.8 259.922 726.32 259.042C727.88 258.122 729.12 256.802 730.04 255.082C731 253.362 731.48 251.362 731.48 249.082ZM752.044 221.362V265.762H745.204V221.362H752.044ZM791.324 248.422C791.324 249.662 791.244 250.782 791.084 251.782H765.824C766.024 254.422 767.004 256.542 768.764 258.142C770.524 259.742 772.684 260.542 775.244 260.542C778.924 260.542 781.524 259.002 783.044 255.922H790.424C789.424 258.962 787.604 261.462 784.964 263.422C782.364 265.342 779.124 266.302 775.244 266.302C772.084 266.302 769.244 265.602 766.724 264.202C764.244 262.762 762.284 260.762 760.844 258.202C759.444 255.602 758.744 252.602 758.744 249.202C758.744 245.802 759.424 242.822 760.784 240.262C762.184 237.662 764.124 235.662 766.604 234.262C769.124 232.862 772.004 232.162 775.244 232.162C778.364 232.162 781.144 232.842 783.584 234.202C786.024 235.562 787.924 237.482 789.284 239.962C790.644 242.402 791.324 245.222 791.324 248.422ZM784.184 246.262C784.144 243.742 783.244 241.722 781.484 240.202C779.724 238.682 777.544 237.922 774.944 237.922C772.584 237.922 770.564 238.682 768.884 240.202C767.204 241.682 766.204 243.702 765.884 246.262H784.184ZM804.895 237.502C805.895 235.822 807.215 234.522 808.855 233.602C810.535 232.642 812.515 232.162 814.795 232.162V239.242H813.055C810.375 239.242 808.335 239.922 806.935 241.282C805.575 242.642 804.895 245.002 804.895 248.362V265.762H798.055V232.702H804.895V237.502ZM881.068 232.702L870.808 265.762H863.608L856.948 241.342L850.288 265.762H843.088L832.768 232.702H839.728L846.628 259.282L853.648 232.702H860.788L867.508 259.162L874.348 232.702H881.068ZM883.9 249.082C883.9 245.762 884.58 242.822 885.94 240.262C887.34 237.702 889.22 235.722 891.58 234.322C893.98 232.882 896.62 232.162 899.5 232.162C902.1 232.162 904.36 232.682 906.28 233.722C908.24 234.722 909.8 235.982 910.96 237.502V232.702H917.86V265.762H910.96V260.842C909.8 262.402 908.22 263.702 906.22 264.742C904.22 265.782 901.94 266.302 899.38 266.302C896.54 266.302 893.94 265.582 891.58 264.142C889.22 262.662 887.34 260.622 885.94 258.022C884.58 255.382 883.9 252.402 883.9 249.082ZM910.96 249.202C910.96 246.922 910.48 244.942 909.52 243.262C908.6 241.582 907.38 240.302 905.86 239.422C904.34 238.542 902.7 238.102 900.94 238.102C899.18 238.102 897.54 238.542 896.02 239.422C894.5 240.262 893.26 241.522 892.3 243.202C891.38 244.842 890.92 246.802 890.92 249.082C890.92 251.362 891.38 253.362 892.3 255.082C893.26 256.802 894.5 258.122 896.02 259.042C897.58 259.922 899.22 260.362 900.94 260.362C902.7 260.362 904.34 259.922 905.86 259.042C907.38 258.162 908.6 256.882 909.52 255.202C910.48 253.482 910.96 251.482 910.96 249.202ZM956.604 232.702L936.324 281.302H929.244L935.964 265.222L922.944 232.702H930.564L939.864 257.902L949.524 232.702H956.604ZM985.332 238.282V256.582C985.332 257.822 985.612 258.722 986.172 259.282C986.772 259.802 987.772 260.062 989.172 260.062H993.372V265.762H987.972C984.892 265.762 982.532 265.042 980.892 263.602C979.252 262.162 978.432 259.822 978.432 256.582V238.282H974.532V232.702H978.432V224.482H985.332V232.702H993.372V238.282H985.332ZM1014.02 266.302C1010.9 266.302 1008.08 265.602 1005.56 264.202C1003.04 262.762 1001.06 260.762 999.616 258.202C998.176 255.602 997.456 252.602 997.456 249.202C997.456 245.842 998.196 242.862 999.676 240.262C1001.16 237.662 1003.18 235.662 1005.74 234.262C1008.3 232.862 1011.16 232.162 1014.32 232.162C1017.48 232.162 1020.34 232.862 1022.9 234.262C1025.46 235.662 1027.48 237.662 1028.96 240.262C1030.44 242.862 1031.18 245.842 1031.18 249.202C1031.18 252.562 1030.42 255.542 1028.9 258.142C1027.38 260.742 1025.3 262.762 1022.66 264.202C1020.06 265.602 1017.18 266.302 1014.02 266.302ZM1014.02 260.362C1015.78 260.362 1017.42 259.942 1018.94 259.102C1020.5 258.262 1021.76 257.002 1022.72 255.322C1023.68 253.642 1024.16 251.602 1024.16 249.202C1024.16 246.802 1023.7 244.782 1022.78 243.142C1021.86 241.462 1020.64 240.202 1019.12 239.362C1017.6 238.522 1015.96 238.102 1014.2 238.102C1012.44 238.102 1010.8 238.522 1009.28 239.362C1007.8 240.202 1006.62 241.462 1005.74 243.142C1004.86 244.782 1004.42 246.802 1004.42 249.202C1004.42 252.762 1005.32 255.522 1007.12 257.482C1008.96 259.402 1011.26 260.362 1014.02 260.362ZM1051.24 249.202C1051.24 245.802 1051.92 242.822 1053.28 240.262C1054.68 237.662 1056.6 235.662 1059.04 234.262C1061.48 232.862 1064.28 232.162 1067.44 232.162C1071.44 232.162 1074.74 233.122 1077.34 235.042C1079.98 236.922 1081.76 239.622 1082.68 243.142H1075.3C1074.7 241.502 1073.74 240.222 1072.42 239.302C1071.1 238.382 1069.44 237.922 1067.44 237.922C1064.64 237.922 1062.4 238.922 1060.72 240.922C1059.08 242.882 1058.26 245.642 1058.26 249.202C1058.26 252.762 1059.08 255.542 1060.72 257.542C1062.4 259.542 1064.64 260.542 1067.44 260.542C1071.4 260.542 1074.02 258.802 1075.3 255.322H1082.68C1081.72 258.682 1079.92 261.362 1077.28 263.362C1074.64 265.322 1071.36 266.302 1067.44 266.302C1064.28 266.302 1061.48 265.602 1059.04 264.202C1056.6 262.762 1054.68 260.762 1053.28 258.202C1051.92 255.602 1051.24 252.602 1051.24 249.202ZM1103.84 266.302C1100.72 266.302 1097.9 265.602 1095.38 264.202C1092.86 262.762 1090.88 260.762 1089.44 258.202C1088 255.602 1087.28 252.602 1087.28 249.202C1087.28 245.842 1088.02 242.862 1089.5 240.262C1090.98 237.662 1093 235.662 1095.56 234.262C1098.12 232.862 1100.98 232.162 1104.14 232.162C1107.3 232.162 1110.16 232.862 1112.72 234.262C1115.28 235.662 1117.3 237.662 1118.78 240.262C1120.26 242.862 1121 245.842 1121 249.202C1121 252.562 1120.24 255.542 1118.72 258.142C1117.2 260.742 1115.12 262.762 1112.48 264.202C1109.88 265.602 1107 266.302 1103.84 266.302ZM1103.84 260.362C1105.6 260.362 1107.24 259.942 1108.76 259.102C1110.32 258.262 1111.58 257.002 1112.54 255.322C1113.5 253.642 1113.98 251.602 1113.98 249.202C1113.98 246.802 1113.52 244.782 1112.6 243.142C1111.68 241.462 1110.46 240.202 1108.94 239.362C1107.42 238.522 1105.78 238.102 1104.02 238.102C1102.26 238.102 1100.62 238.522 1099.1 239.362C1097.62 240.202 1096.44 241.462 1095.56 243.142C1094.68 244.782 1094.24 246.802 1094.24 249.202C1094.24 252.762 1095.14 255.522 1096.94 257.482C1098.78 259.402 1101.08 260.362 1103.84 260.362ZM1144.44 232.162C1147.04 232.162 1149.36 232.702 1151.4 233.782C1153.48 234.862 1155.1 236.462 1156.26 238.582C1157.42 240.702 1158 243.262 1158 246.262V265.762H1151.22V247.282C1151.22 244.322 1150.48 242.062 1149 240.502C1147.52 238.902 1145.5 238.102 1142.94 238.102C1140.38 238.102 1138.34 238.902 1136.82 240.502C1135.34 242.062 1134.6 244.322 1134.6 247.282V265.762H1127.76V232.702H1134.6V236.482C1135.72 235.122 1137.14 234.062 1138.86 233.302C1140.62 232.542 1142.48 232.162 1144.44 232.162ZM1180.59 238.282H1174.47V265.762H1167.57V238.282H1163.67V232.702H1167.57V230.362C1167.57 226.562 1168.57 223.802 1170.57 222.082C1172.61 220.322 1175.79 219.442 1180.11 219.442V225.142C1178.03 225.142 1176.57 225.542 1175.73 226.342C1174.89 227.102 1174.47 228.442 1174.47 230.362V232.702H1180.59V238.282ZM1190.13 228.322C1188.89 228.322 1187.85 227.902 1187.01 227.062C1186.17 226.222 1185.75 225.182 1185.75 223.942C1185.75 222.702 1186.17 221.662 1187.01 220.822C1187.85 219.982 1188.89 219.562 1190.13 219.562C1191.33 219.562 1192.35 219.982 1193.19 220.822C1194.03 221.662 1194.45 222.702 1194.45 223.942C1194.45 225.182 1194.03 226.222 1193.19 227.062C1192.35 227.902 1191.33 228.322 1190.13 228.322ZM1193.49 232.702V265.762H1186.65V232.702H1193.49ZM1215.79 232.162C1218.35 232.162 1220.61 232.682 1222.57 233.722C1224.57 234.722 1226.13 235.982 1227.25 237.502V232.702H1234.15V266.302C1234.15 269.342 1233.51 272.042 1232.23 274.402C1230.95 276.802 1229.09 278.682 1226.65 280.042C1224.25 281.402 1221.37 282.082 1218.01 282.082C1213.53 282.082 1209.81 281.022 1206.85 278.902C1203.89 276.822 1202.21 273.982 1201.81 270.382H1208.59C1209.11 272.102 1210.21 273.482 1211.89 274.522C1213.61 275.602 1215.65 276.142 1218.01 276.142C1220.77 276.142 1222.99 275.302 1224.67 273.622C1226.39 271.942 1227.25 269.502 1227.25 266.302V260.782C1226.09 262.342 1224.51 263.662 1222.51 264.742C1220.55 265.782 1218.31 266.302 1215.79 266.302C1212.91 266.302 1210.27 265.582 1207.87 264.142C1205.51 262.662 1203.63 260.622 1202.23 258.022C1200.87 255.382 1200.19 252.402 1200.19 249.082C1200.19 245.762 1200.87 242.822 1202.23 240.262C1203.63 237.702 1205.51 235.722 1207.87 234.322C1210.27 232.882 1212.91 232.162 1215.79 232.162ZM1227.25 249.202C1227.25 246.922 1226.77 244.942 1225.81 243.262C1224.89 241.582 1223.67 240.302 1222.15 239.422C1220.63 238.542 1218.99 238.102 1217.23 238.102C1215.47 238.102 1213.83 238.542 1212.31 239.422C1210.79 240.262 1209.55 241.522 1208.59 243.202C1207.67 244.842 1207.21 246.802 1207.21 249.082C1207.21 251.362 1207.67 253.362 1208.59 255.082C1209.55 256.802 1210.79 258.122 1212.31 259.042C1213.87 259.922 1215.51 260.362 1217.23 260.362C1218.99 260.362 1220.63 259.922 1222.15 259.042C1223.67 258.162 1224.89 256.882 1225.81 255.202C1226.77 253.482 1227.25 251.482 1227.25 249.202Z"
          fill="white"/>
    <path d="M360.362 297.711C361.41 300.56 360.526 303.736 358.267 305.766L344.088 318.667C344.448 321.385 344.645 324.168 344.645 326.984C344.645 329.8 344.448 332.584 344.088 335.301L358.267 348.203C360.526 350.233 361.41 353.409 360.362 356.258C358.921 360.154 357.186 363.887 355.189 367.489L353.65 370.141C351.488 373.743 349.065 377.149 346.413 380.358C344.481 382.715 341.272 383.501 338.391 382.584L320.152 376.789C315.764 380.161 310.918 382.977 305.745 385.106L301.651 403.803C300.997 406.782 298.704 409.14 295.692 409.631C291.173 410.384 286.524 410.777 281.776 410.777C277.028 410.777 272.378 410.384 267.859 409.631C264.847 409.14 262.555 406.782 261.9 403.803L257.807 385.106C252.633 382.977 247.787 380.161 243.399 376.789L225.193 382.617C222.312 383.534 219.103 382.715 217.171 380.39C214.519 377.181 212.095 373.776 209.934 370.174L208.395 367.522C206.398 363.92 204.662 360.187 203.222 356.291C202.174 353.442 203.058 350.266 205.317 348.235L219.496 335.334C219.136 332.584 218.939 329.8 218.939 326.984C218.939 324.168 219.136 321.385 219.496 318.667L205.317 305.766C203.058 303.736 202.174 300.56 203.222 297.711C204.662 293.814 206.398 290.081 208.395 286.479L209.934 283.827C212.095 280.225 214.519 276.82 217.171 273.611C219.103 271.253 222.312 270.467 225.193 271.384L243.432 277.18C247.82 273.807 252.666 270.991 257.839 268.863L261.932 250.166C262.587 247.186 264.879 244.829 267.892 244.337C272.411 243.552 277.06 243.159 281.808 243.159C286.556 243.159 291.206 243.552 295.725 244.305C298.737 244.796 301.029 247.153 301.684 250.133L305.777 268.83C310.951 270.959 315.797 273.775 320.185 277.147L338.423 271.352C341.305 270.435 344.514 271.253 346.446 273.578C349.098 276.787 351.521 280.193 353.682 283.794L355.221 286.447C357.219 290.049 358.954 293.781 360.395 297.678L360.362 297.711ZM281.808 353.18C288.756 353.18 295.419 350.42 300.331 345.507C305.244 340.595 308.004 333.932 308.004 326.984C308.004 320.037 305.244 313.374 300.331 308.461C295.419 303.549 288.756 300.789 281.808 300.789C274.861 300.789 268.198 303.549 263.285 308.461C258.373 313.374 255.613 320.037 255.613 326.984C255.613 333.932 258.373 340.595 263.285 345.507C268.198 350.42 274.861 353.18 281.808 353.18Z"
          fill="url(#paint1_linear_4_47)"/>
    <path d="M202.784 177.806V225.049H156.602V428.886H202.784V476.13H101.396V177.806H202.784Z"
          fill="url(#paint2_linear_4_47)"/>
    <path d="M462.188 476.13H360.801V428.886H406.982V225.049H360.801V177.806H462.188V476.13Z"
          fill="url(#paint3_linear_4_47)"/>
    <defs>
        <linearGradient id="paint0_linear_4_47" x1="-405.89" y1="-179.445" x2="332.927" y2="1491.55"
                        gradientUnits="userSpaceOnUse">
            <stop stop-color="#0FFFFB"/>
            <stop offset="1" stop-color="#1EFF8E"/>
        </linearGradient>
        <linearGradient id="paint1_linear_4_47" x1="151.763" y1="194.128" x2="412.825" y2="472.441"
                        gradientUnits="userSpaceOnUse">
            <stop stop-color="#0FFFFB"/>
            <stop offset="1" stop-color="#1EFF8E"/>
        </linearGradient>
        <linearGradient id="paint2_linear_4_47" x1="68.6594" y1="90.5424" x2="380.479" y2="210.384"
                        gradientUnits="userSpaceOnUse">
            <stop stop-color="#0FFFFB"/>
            <stop offset="1" stop-color="#1EFF8E"/>
        </linearGradient>
        <linearGradient id="paint3_linear_4_47" x1="328.064" y1="90.5424" x2="639.883" y2="210.384"
                        gradientUnits="userSpaceOnUse">
            <stop stop-color="#0FFFFB"/>
            <stop offset="1" stop-color="#1EFF8E"/>
        </linearGradient>
    </defs>
</svg>
