<svg width="411" height="411" viewBox="0 0 411 411" fill="none" xmlns="http://www.w3.org/2000/svg">
<rect x="3.90283" y="4.26196" width="403" height="403" rx="59.5" fill="#171717" stroke="url(#paint0_linear_4_33)" stroke-width="7"/>
<path d="M268.418 182.297C269.258 184.582 268.549 187.129 266.737 188.758L255.366 199.105C255.655 201.284 255.812 203.517 255.812 205.775C255.812 208.034 255.655 210.266 255.366 212.446L266.737 222.793C268.549 224.421 269.258 226.968 268.418 229.253C267.262 232.378 265.871 235.372 264.269 238.261L263.034 240.388C261.301 243.277 259.358 246.008 257.23 248.582C255.681 250.473 253.107 251.103 250.796 250.367L236.169 245.719C232.649 248.424 228.763 250.683 224.613 252.39L221.331 267.385C220.805 269.775 218.967 271.666 216.551 272.06C212.927 272.664 209.198 272.979 205.39 272.979C201.582 272.979 197.853 272.664 194.229 272.06C191.812 271.666 189.974 269.775 189.449 267.385L186.166 252.39C182.017 250.683 178.13 248.424 174.611 245.719L160.01 250.394C157.699 251.129 155.125 250.473 153.575 248.608C151.448 246.034 149.505 243.303 147.772 240.414L146.537 238.287C144.935 235.398 143.543 232.404 142.388 229.279C141.548 226.995 142.257 224.447 144.069 222.819L155.44 212.472C155.151 210.266 154.994 208.034 154.994 205.775C154.994 203.517 155.151 201.284 155.44 199.105L144.069 188.758C142.257 187.129 141.548 184.582 142.388 182.297C143.543 179.172 144.935 176.178 146.537 173.289L147.772 171.162C149.505 168.273 151.448 165.542 153.575 162.968C155.125 161.078 157.699 160.447 160.01 161.183L174.637 165.831C178.156 163.126 182.043 160.868 186.192 159.161L189.475 144.165C190 141.775 191.839 139.884 194.255 139.491C197.879 138.86 201.608 138.545 205.416 138.545C209.224 138.545 212.953 138.86 216.577 139.464C218.993 139.858 220.832 141.749 221.357 144.139L224.64 159.134C228.789 160.841 232.676 163.1 236.195 165.805L250.823 161.156C253.134 160.421 255.707 161.078 257.257 162.942C259.384 165.516 261.327 168.247 263.061 171.136L264.295 173.263C265.897 176.152 267.289 179.146 268.444 182.271L268.418 182.297ZM205.416 226.784C210.988 226.784 216.332 224.571 220.272 220.631C224.212 216.691 226.425 211.347 226.425 205.775C226.425 200.203 224.212 194.859 220.272 190.919C216.332 186.979 210.988 184.766 205.416 184.766C199.844 184.766 194.5 186.979 190.56 190.919C186.62 194.859 184.407 200.203 184.407 205.775C184.407 211.347 186.62 216.691 190.56 220.631C194.5 224.571 199.844 226.784 205.416 226.784Z" fill="url(#paint1_linear_4_33)"/>
<path d="M142.037 86.1309V124.021H104.998V287.503H142.037V325.393H60.7217V86.1309H142.037Z" fill="url(#paint2_linear_4_33)"/>
<path d="M350.084 325.393H268.769V287.503H305.808V124.021H268.769V86.1309H350.084V325.393Z" fill="url(#paint3_linear_4_33)"/>
<defs>
<linearGradient id="paint0_linear_4_33" x1="-120.46" y1="-108.073" x2="492.922" y2="585.575" gradientUnits="userSpaceOnUse">
<stop stop-color="#0FFFFB"/>
<stop offset="1" stop-color="#1EFF8E"/>
</linearGradient>
<linearGradient id="paint1_linear_4_33" x1="101.117" y1="99.2215" x2="310.494" y2="322.435" gradientUnits="userSpaceOnUse">
<stop stop-color="#0FFFFB"/>
<stop offset="1" stop-color="#1EFF8E"/>
</linearGradient>
<linearGradient id="paint2_linear_4_33" x1="34.4663" y1="16.1437" x2="284.552" y2="112.259" gradientUnits="userSpaceOnUse">
<stop stop-color="#0FFFFB"/>
<stop offset="1" stop-color="#1EFF8E"/>
</linearGradient>
<linearGradient id="paint3_linear_4_33" x1="242.514" y1="16.1437" x2="492.599" y2="112.259" gradientUnits="userSpaceOnUse">
<stop stop-color="#0FFFFB"/>
<stop offset="1" stop-color="#1EFF8E"/>
</linearGradient>
</defs>
</svg>
